<svg xmlns="http://www.w3.org/2000/svg" width="1200" height="673" fill="none" viewBox="0 0 1200 673"><defs><linearGradient id="bg" x1="0" x2="1200" y1="0" y2="673" gradientUnits="userSpaceOnUse"><stop stop-color="#fff"/><stop offset="1" stop-color="#eff6ff"/></linearGradient><linearGradient id="accent" x1="220" x2="980" y1="0" y2="0" gradientUnits="userSpaceOnUse"><stop stop-color="#60a5fa" stop-opacity=".15"/><stop offset=".5" stop-color="#2563eb"/><stop offset="1" stop-color="#60a5fa" stop-opacity=".15"/></linearGradient><linearGradient id="codexIcon" x1="12" x2="12" y1="3" y2="21" gradientUnits="userSpaceOnUse"><stop stop-color="#b1a7ff"/><stop offset=".5" stop-color="#7a9dff"/><stop offset="1" stop-color="#3941ff"/></linearGradient><pattern id="grid" width="36" height="36" patternUnits="userSpaceOnUse"><path stroke="#bfdbfe" stroke-opacity=".38" stroke-width="1" d="M36 0H0V36"/></pattern><filter id="shadow" width="140%" height="140%" x="-20%" y="-20%" color-interpolation-filters="sRGB"><feDropShadow dx="0" dy="14" flood-color="#1d4ed8" flood-opacity=".1" stdDeviation="22"/></filter></defs><rect width="1200" height="673" fill="url(#bg)"/><rect width="1200" height="673" fill="url(#grid)" opacity=".55"/><rect width="1056" height="545" x="72" y="64" fill="#fff" stroke="#bfdbfe" stroke-width="1.5" filter="url(#shadow)" rx="28"/><text x="96" y="112" fill="#2563eb" font-family="ui-monospace, SFMono-Regular, Menlo, monospace" font-size="15" font-weight="700" letter-spacing=".08em">SAYBACKEND.COM</text><text x="1104" y="112" fill="#93c5fd" font-family="ui-monospace, SFMono-Regular, Menlo, monospace" font-size="15" text-anchor="end">LOCAL PROXY</text><g transform="translate(220 166)"><rect width="760" height="1.75" x="0" y="0" fill="url(#accent)" rx=".875"/><text x="380" y="86" fill="#0f172a" font-family="ui-sans-serif, system-ui, -apple-system, BlinkMacSystemFont, Segoe UI, sans-serif" font-size="56" font-weight="800" text-anchor="middle">Factory Droid</text><text x="380" y="145" fill="#1d4ed8" font-family="ui-sans-serif, system-ui, -apple-system, BlinkMacSystemFont, Segoe UI, sans-serif" font-size="42" font-weight="750" text-anchor="middle">with CLIProxyAPI</text><text x="380" y="192" fill="#475569" font-family="ui-sans-serif, system-ui, -apple-system, BlinkMacSystemFont, Segoe UI, sans-serif" font-size="23" font-weight="500" text-anchor="middle">Claude Max + OpenAI Codex subscriptions via BYOK</text></g><g stroke-linecap="round" stroke-linejoin="round"><g transform="translate(100 424)"><rect width="210" height="86" x="0" y="0" fill="#eff6ff" stroke="#93c5fd" stroke-width="2"/><g><path fill="#2563eb" d="M47.75 11.15a.867.867 0 0 1-.671-.806.84.84 0 0 1 .067-.362c1.688-4.007 2.433-7.213 1.23-8.555-3.183-3.56-15.952 3.52-20.024 5.919a.9.9 0 0 1-1.273-.41c-1.711-3.998-3.51-6.78-5.334-6.9-4.833-.323-8.73 13.49-9.87 17.992a.85.85 0 0 1-.459.563.9.9 0 0 1-.737.027c-4.109-1.647-7.398-2.373-8.773-1.2-3.651 3.104 3.609 15.557 6.068 19.528a.85.85 0 0 1-.11 1.031.9.9 0 0 1-.31.21C3.455 39.856.604 41.61.478 43.389c-.329 4.713 13.834 8.513 18.452 9.625q.186.046.337.163a.87.87 0 0 1 .332.642.84.84 0 0 1-.067.362c-1.688 4.007-2.433 7.214-1.23 8.555 3.183 3.561 15.954-3.519 20.025-5.917a.9.9 0 0 1 1.058.107.9.9 0 0 1 .215.302c1.711 3.997 3.509 6.779 5.334 6.9 4.833.322 8.73-13.49 9.868-17.993a.85.85 0 0 1 .168-.33.88.88 0 0 1 .659-.324.9.9 0 0 1 .371.066c4.109 1.647 7.397 2.372 8.773 1.2 3.651-3.105-3.61-15.559-6.07-19.53a.85.85 0 0 1 .111-1.03.9.9 0 0 1 .31-.21c4.1-1.67 6.952-3.424 7.075-5.203.331-4.713-13.833-8.513-18.45-9.623m-5.546-4.518c.93 1.624-3.858 12.446-7.42 20.015a.7.7 0 0 1-.28.303.71.71 0 0 1-.796-.059.7.7 0 0 1-.23-.341c-1.439-4.921-3.082-10.704-4.841-15.612a.84.84 0 0 1 .01-.594.87.87 0 0 1 .401-.446c4.392-2.34 11.908-5.446 13.156-3.266m-21.048 1.34c1.833.507 6.294 11.46 9.264 19.268a.67.67 0 0 1-.2.754.71.71 0 0 1-.794.08c-4.589-2.485-9.94-5.444-14.743-7.702a.87.87 0 0 1-.422-.427.84.84 0 0 1-.04-.591c1.414-4.679 4.471-12.063 6.935-11.383M7.243 23.433c1.664-.906 12.762 3.763 20.522 7.235.13.058.239.154.311.274a.67.67 0 0 1-.06.776.7.7 0 0 1-.35.225c-5.045 1.403-10.976 3.006-16.01 4.721a.9.9 0 0 1-.607-.01.88.88 0 0 1-.456-.391c-2.395-4.284-5.586-11.613-3.35-12.83M8.617 43.96c.519-1.788 11.752-6.14 19.758-9.035a.72.72 0 0 1 .773.195.67.67 0 0 1 .081.774c-2.548 4.475-5.582 9.694-7.898 14.377a.87.87 0 0 1-.437.413.9.9 0 0 1-.607.039c-4.797-1.37-12.37-4.36-11.67-6.763m15.855 13.568c-.93-1.623 3.859-12.446 7.42-20.014a.7.7 0 0 1 .28-.303.715.715 0 0 1 .796.059.7.7 0 0 1 .23.34c1.439 4.92 3.083 10.705 4.841 15.613a.84.84 0 0 1-.01.593.87.87 0 0 1-.402.445c-4.391 2.335-11.908 5.447-13.15 3.267zm21.049-1.34c-1.836-.506-6.297-11.461-9.266-19.269a.67.67 0 0 1 .2-.755.71.71 0 0 1 .795-.078c4.587 2.484 9.94 5.445 14.742 7.703.189.088.339.24.423.426a.84.84 0 0 1 .039.592c-1.413 4.686-4.47 12.063-6.933 11.381m13.912-15.462c-1.665.907-12.762-3.763-20.523-7.236a.7.7 0 0 1-.311-.273.67.67 0 0 1 .06-.777.7.7 0 0 1 .35-.225c5.046-1.402 10.975-3.005 16.009-4.72a.9.9 0 0 1 .609.01.88.88 0 0 1 .457.392c2.393 4.282 5.584 11.613 3.349 12.829M58.06 20.2c-.521 1.79-11.753 6.14-19.759 9.036a.72.72 0 0 1-.774-.195.67.67 0 0 1-.08-.776c2.547-4.474 5.581-9.694 7.897-14.377a.87.87 0 0 1 .437-.412.9.9 0 0 1 .607-.038c4.797 1.377 12.37 4.359 11.672 6.762" transform="translate(24 14) scale(.86)"/></g><path stroke="#60a5fa" stroke-width="4" d="M94 35h64M94 52h42"/><text x="105" y="116" fill="#64748b" font-family="ui-monospace, SFMono-Regular, Menlo, monospace" font-size="14" text-anchor="middle">Factory</text></g><path stroke="#93c5fd" stroke-width="3" d="M226 43H314" transform="translate(100 424)"/><path stroke="#2563eb" stroke-width="3" d="m301 31 14 12-14 12" transform="translate(100 424)"/><g transform="translate(100 424) translate(330 -20)"><rect width="294" height="126" x="0" y="0" fill="#fff" stroke="#2563eb" stroke-width="2.5"/><rect width="56" height="48" x="44" y="39" fill="#dbeafe" stroke="#60a5fa" stroke-width="2"/><path stroke="#2563eb" stroke-width="4" d="M58 55h28M58 71h28"/><circle cx="45" cy="63" r="5" fill="#2563eb"/><circle cx="99" cy="63" r="5" fill="#2563eb"/><path stroke="#60a5fa" stroke-width="3" d="M28 63h17M99 63h17"/><path stroke="#93c5fd" stroke-width="4" d="M132 48h92M132 68h118M132 88h74"/><text x="147" y="156" fill="#2563eb" font-family="ui-monospace, SFMono-Regular, Menlo, monospace" font-size="14" font-weight="700" text-anchor="middle">localhost:8317</text></g><path stroke="#93c5fd" stroke-width="3" d="M642 43h118" transform="translate(100 424)"/><path stroke="#2563eb" stroke-width="3" d="m747 31 14 12-14 12" transform="translate(100 424)"/><g><g><path fill="#d97757" d="M11.376 24L10.776 23.544L10.44 22.8L10.776 21.312L11.16 19.392L11.472 17.856L11.76 15.96L11.928 15.336L11.904 15.288L11.784 15.312L10.344 17.28L8.16 20.232L6.432 22.056L6.024 22.224L5.304 21.864L5.376 21.192L5.784 20.616L8.16 17.568L9.6 15.672L10.536 14.592L10.512 14.448H10.464L4.128 18.576L3 18.72L2.496 18.264L2.568 17.52L2.808 17.28L4.704 15.96L9.432 13.32L9.504 13.08L9.432 12.96H9.192L8.4 12.912L5.712 12.84L3.384 12.744L1.104 12.624L0.528 12.504L0 11.784L0.048 11.424L0.528 11.112L1.224 11.16L2.736 11.28L5.016 11.424L6.672 11.52L9.12 11.784H9.504L9.552 11.616L9.432 11.52L9.336 11.424L6.96 9.84L4.416 8.16L3.072 7.176L2.352 6.672L1.992 6.216L1.848 5.208L2.496 4.488L3.384 4.56L3.6 4.608L4.488 5.304L6.384 6.768L8.88 8.616L9.24 8.904L9.408 8.808V8.736L9.24 8.472L7.896 6.024L6.456 3.528L5.808 2.496L5.64 1.872C5.576 1.656 5.544 1.416 5.544 1.152L6.288 0.144001L6.696 0L7.704 0.144001L8.112 0.504001L8.736 1.92L9.72 4.152L11.28 7.176L11.736 8.088L11.976 8.904L12.072 9.168H12.24V9.024L12.36 7.296L12.6 5.208L12.84 2.52L12.912 1.752L13.296 0.840001L14.04 0.360001L14.616 0.624001L15.096 1.32L15.024 1.752L14.76 3.6L14.184 6.504L13.824 8.472H14.04L14.28 8.208L15.264 6.912L16.92 4.848L17.64 4.032L18.504 3.12L19.056 2.688H20.088L20.832 3.816L20.496 4.992L19.44 6.336L18.552 7.464L17.28 9.168L16.512 10.536L16.584 10.632H16.752L19.608 10.008L21.168 9.744L22.992 9.432L23.832 9.816L23.928 10.2L23.592 11.016L21.624 11.496L19.32 11.952L15.888 12.768L15.84 12.792L15.888 12.864L17.424 13.008L18.096 13.056H19.728L22.752 13.272L23.544 13.8L24 14.424L23.928 14.928L22.704 15.528L21.072 15.144L17.232 14.232L15.936 13.92H15.744V14.016L16.848 15.096L18.84 16.896L21.36 19.224L21.48 19.8L21.168 20.28L20.832 20.232L18.624 18.552L17.76 17.808L15.84 16.2H15.72V16.368L16.152 17.016L18.504 20.544L18.624 21.624L18.456 21.96L17.832 22.176L17.184 22.056L15.792 20.136L14.376 17.952L13.224 16.008L13.104 16.104L12.408 23.352L12.096 23.712L11.376 24Z" transform="translate(100 424) translate(776 0) translate(24 19) scale(2)"/></g><text x="48" y="116" fill="#64748b" font-family="ui-monospace, SFMono-Regular, Menlo, monospace" font-size="14" text-anchor="middle" transform="translate(100 424) translate(776 0)">Claude</text></g><g><g><path fill="#fff" d="M19.503 0H4.496A4.496 4.496 0 000 4.496v15.007A4.496 4.496 0 004.496 24h15.007A4.496 4.496 0 0024 19.503V4.496A4.496 4.496 0 0019.503 0z" transform="translate(100 424) translate(900 0) translate(24 19) scale(2)"/><path fill="url(#codexIcon)" d="M9.064 3.344a4.578 4.578 0 012.285-.312c1 .115 1.891.54 2.673 1.275.01.01.024.017.037.021a.09.09 0 00.043 0 4.55 4.55 0 013.046.275l.047.022.116.057a4.581 4.581 0 012.188 2.399c.209.51.313 1.041.315 1.595a4.24 4.24 0 01-.134 1.223.123.123 0 00.03.115c.594.607.988 1.33 1.183 2.17.289 1.425-.007 2.71-.887 3.854l-.136.166a4.548 4.548 0 01-2.201 1.388.123.123 0 00-.081.076c-.191.551-.383 1.023-.74 1.494-.9 1.187-2.222 1.846-3.711 1.838-1.187-.006-2.239-.44-3.157-1.302a.107.107 0 00-.105-.024c-.388.125-.78.143-1.204.138a4.441 4.441 0 01-1.945-.466 4.544 4.544 0 01-1.61-1.335c-.152-.202-.303-.392-.414-.617a5.81 5.81 0 01-.37-.961 4.582 4.582 0 01-.014-2.298.124.124 0 00.006-.056.085.085 0 00-.027-.048 4.467 4.467 0 01-1.034-1.651 3.896 3.896 0 01-.251-1.192 5.189 5.189 0 01.141-1.6c.337-1.112.982-1.985 1.933-2.618.212-.141.413-.251.601-.33.215-.089.43-.164.646-.227a.098.098 0 00.065-.066 4.51 4.51 0 01.829-1.615 4.535 4.535 0 011.837-1.388zm3.482 10.565a.637.637 0 000 1.272h3.636a.637.637 0 100-1.272h-3.636zM8.462 9.23a.637.637 0 00-1.106.631l1.272 2.224-1.266 2.136a.636.636 0 101.095.649l1.454-2.455a.636.636 0 00.005-.64L8.462 9.23z" transform="translate(100 424) translate(900 0) translate(24 19) scale(2)"/></g><text x="48" y="116" fill="#64748b" font-family="ui-monospace, SFMono-Regular, Menlo, monospace" font-size="14" text-anchor="middle" transform="translate(100 424) translate(900 0)">Codex</text></g></g><g transform="translate(438 570)"><rect width="324" height="44" x="0" y="-22" fill="#eff6ff" stroke="#bfdbfe" rx="22"/><circle cx="30" cy="0" r="5" fill="#2563eb"/><text x="54" y="6" fill="#1e3a8a" font-family="ui-monospace, SFMono-Regular, Menlo, monospace" font-size="15">OAuth tokens to API-key flow</text></g></svg>