<svg xmlns="http://www.w3.org/2000/svg" xmlns:xlink="http://www.w3.org/1999/xlink" width="6912" height="3456" preserveAspectRatio="xMidYMid meet" version="1.0" viewBox="0 0 5184 2592" zoomAndPan="magnify"><defs><clipPath id="94d9275530"><path d="M 4079.570312 259.101562 L 5183 259.101562 L 5183 2591 L 4079.570312 2591 Z M 4079.570312 259.101562" clip-rule="nonzero"/></clipPath><clipPath id="f0e94a1344"><path d="M 5329.972656 259.101562 C 4639.394531 259.101562 4079.570312 818.925781 4079.570312 1509.503906 C 4079.570312 2200.082031 4639.394531 2759.90625 5329.972656 2759.90625 C 6020.550781 2759.90625 6580.375 2200.082031 6580.375 1509.503906 C 6580.375 818.925781 6020.550781 259.101562 5329.972656 259.101562 Z M 5329.972656 259.101562" clip-rule="nonzero"/></clipPath><clipPath id="89ae02c50d"><path d="M 2409.761719 1545.914062 L 4079.570312 1545.914062 L 4079.570312 2591 L 2409.761719 2591 Z M 2409.761719 1545.914062" clip-rule="nonzero"/></clipPath><clipPath id="4ae4ee5922"><path d="M 3244.664062 1545.914062 C 2783.558594 1545.914062 2409.761719 1919.714844 2409.761719 2380.820312 C 2409.761719 2841.925781 2783.558594 3215.722656 3244.664062 3215.722656 C 3705.769531 3215.722656 4079.570312 2841.925781 4079.570312 2380.820312 C 4079.570312 1919.714844 3705.769531 1545.914062 3244.664062 1545.914062 Z M 3244.664062 1545.914062" clip-rule="nonzero"/></clipPath><clipPath id="0fa25c8f56"><path d="M 3244.664062 725.410156 L 3926.609375 725.410156 L 3926.609375 1407.351562 L 3244.664062 1407.351562 Z M 3244.664062 725.410156" clip-rule="nonzero"/></clipPath><clipPath id="4bd1e24a93"><path d="M 3585.636719 725.410156 C 3397.324219 725.410156 3244.664062 878.066406 3244.664062 1066.382812 C 3244.664062 1254.695312 3397.324219 1407.351562 3585.636719 1407.351562 C 3773.949219 1407.351562 3926.609375 1254.695312 3926.609375 1066.382812 C 3926.609375 878.066406 3773.949219 725.410156 3585.636719 725.410156 Z M 3585.636719 725.410156" clip-rule="nonzero"/></clipPath></defs><path fill="#fff" fill-opacity="1" fill-rule="nonzero" d="M 1 0 L 5183 0 L 5183 2591 L 1 2591 Z M 1 0"/><path fill="#f5f5f5" fill-opacity="1" fill-rule="nonzero" d="M 1 0 L 5183 0 L 5183 2591 L 1 2591 Z M 1 0"/><g clip-path="url(#94d9275530)"><g clip-path="url(#f0e94a1344)"><path fill="#282120" fill-opacity="1" fill-rule="nonzero" d="M 4079.570312 259.101562 L 6580.375 259.101562 L 6580.375 2759.90625 L 4079.570312 2759.90625 Z M 4079.570312 259.101562"/></g></g><g clip-path="url(#89ae02c50d)"><g clip-path="url(#4ae4ee5922)"><path fill="#8c756a" fill-opacity="1" fill-rule="nonzero" d="M 2409.761719 1545.914062 L 4079.570312 1545.914062 L 4079.570312 3215.722656 L 2409.761719 3215.722656 Z M 2409.761719 1545.914062"/></g></g><g clip-path="url(#0fa25c8f56)"><g clip-path="url(#4bd1e24a93)"><path fill="#050a30" fill-opacity="1" fill-rule="nonzero" d="M 3244.664062 725.410156 L 3926.609375 725.410156 L 3926.609375 1407.351562 L 3244.664062 1407.351562 Z M 3244.664062 725.410156"/></g></g><g fill="#000" fill-opacity="1"><g><g><path d="M 46.015625 0 L 46.015625 -83.609375 L 11.5 -83.609375 L 11.5 -98.203125 L 96.65625 -98.203125 L 96.65625 -83.609375 L 61.15625 -83.609375 L 61.15625 0 Z M 46.015625 0" transform="translate(260.099641, 1543.266152)"/></g></g></g><g fill="#000" fill-opacity="1"><g><g><path d="M 97.640625 -9.671875 L 97.5 -9.671875 C 94.875 -7.804688 91.617188 -6.007812 87.734375 -4.28125 C 83.859375 -2.550781 79.582031 -1.171875 74.90625 -0.140625 C 70.226562 0.890625 65.457031 1.40625 60.59375 1.40625 C 51.34375 1.40625 43.1875 -0.207031 36.125 -3.4375 C 29.0625 -6.664062 23.566406 -11.109375 19.640625 -16.765625 C 15.710938 -22.421875 13.75 -28.847656 13.75 -36.046875 C 13.75 -44.273438 15.828125 -51.3125 19.984375 -57.15625 C 24.148438 -63.007812 29.691406 -67.5 36.609375 -70.625 C 43.535156 -73.757812 51.113281 -75.328125 59.34375 -75.328125 C 67.007812 -75.328125 73.972656 -73.804688 80.234375 -70.765625 C 86.503906 -67.734375 91.507812 -63.550781 95.25 -58.21875 C 98.988281 -52.882812 100.859375 -46.664062 100.859375 -39.5625 L 100.71875 -32.40625 L 28.484375 -32.40625 C 29.785156 -26.039062 33.546875 -21.035156 39.765625 -17.390625 C 45.984375 -13.742188 53.722656 -11.921875 62.984375 -11.921875 C 69.898438 -11.921875 75.578125 -12.898438 80.015625 -14.859375 C 84.460938 -16.828125 88.09375 -18.703125 90.90625 -20.484375 Z M 59.34375 -62 C 51.757812 -62 45.140625 -60.617188 39.484375 -57.859375 C 33.828125 -55.109375 30.25 -50.457031 28.75 -43.90625 L 86.125 -43.90625 L 86.125 -45.875 C 85.664062 -49.050781 84.125 -51.851562 81.5 -54.28125 C 78.882812 -56.71875 75.632812 -58.613281 71.75 -59.96875 C 67.875 -61.320312 63.738281 -62 59.34375 -62 Z M 59.34375 -62" transform="translate(368.113686, 1543.266152)"/></g></g></g><g fill="#000" fill-opacity="1"><g><g><path d="M 29.453125 -36.890625 C 29.453125 -32.023438 30.738281 -27.695312 33.3125 -23.90625 C 35.882812 -20.125 39.34375 -17.132812 43.6875 -14.9375 C 48.039062 -12.738281 52.835938 -11.640625 58.078125 -11.640625 C 64.804688 -11.640625 70.601562 -12.785156 75.46875 -15.078125 C 80.332031 -17.367188 84.492188 -19.734375 87.953125 -22.171875 L 95.8125 -11.359375 C 91.226562 -7.898438 85.753906 -4.90625 79.390625 -2.375 C 73.035156 0.144531 65.742188 1.40625 57.515625 1.40625 C 49.378906 1.40625 42.082031 -0.273438 35.625 -3.640625 C 29.175781 -7.015625 24.082031 -11.597656 20.34375 -17.390625 C 16.601562 -23.191406 14.734375 -29.691406 14.734375 -36.890625 C 14.734375 -44.179688 16.601562 -50.703125 20.34375 -56.453125 C 24.082031 -62.210938 29.175781 -66.773438 35.625 -70.140625 C 42.082031 -73.503906 49.378906 -75.1875 57.515625 -75.1875 C 65.648438 -75.1875 73.109375 -73.898438 79.890625 -71.328125 C 86.671875 -68.753906 91.976562 -65.222656 95.8125 -60.734375 L 87.671875 -49.515625 C 85.429688 -51.859375 82.671875 -53.988281 79.390625 -55.90625 C 76.117188 -57.820312 72.613281 -59.335938 68.875 -60.453125 C 65.132812 -61.578125 61.488281 -62.140625 57.9375 -62.140625 C 52.320312 -62.140625 47.363281 -61.039062 43.0625 -58.84375 C 38.757812 -56.644531 35.414062 -53.648438 33.03125 -49.859375 C 30.644531 -46.078125 29.453125 -41.753906 29.453125 -36.890625 Z M 29.453125 -36.890625" transform="translate(485.105521, 1543.266152)"/></g></g></g><g fill="#000" fill-opacity="1"><g><g><path d="M 69.71875 -75.1875 C 76.914062 -75.1875 82.828125 -73.757812 87.453125 -70.90625 C 92.085938 -68.0625 95.503906 -64.273438 97.703125 -59.546875 C 99.898438 -54.828125 101 -49.613281 101 -43.90625 L 101 0 L 86.546875 0 L 86.546875 -41.9375 C 86.546875 -47.832031 84.535156 -52.695312 80.515625 -56.53125 C 76.492188 -60.363281 71.304688 -62.234375 64.953125 -62.140625 C 59.992188 -62.140625 55.597656 -60.992188 51.765625 -58.703125 C 47.929688 -56.410156 44.9375 -53.601562 42.78125 -50.28125 C 40.632812 -46.96875 39.5625 -43.722656 39.5625 -40.546875 L 39.5625 0 L 25.109375 0 L 25.109375 -103.8125 L 39.5625 -103.8125 L 39.5625 -61.4375 C 42.644531 -65.09375 46.851562 -68.296875 52.1875 -71.046875 C 57.519531 -73.804688 63.363281 -75.1875 69.71875 -75.1875 Z M 69.71875 -75.1875" transform="translate(594.943176, 1543.266152)"/></g></g></g><g fill="#000" fill-opacity="1"><g><g><path d="M 72.25 -98.203125 C 83.84375 -98.203125 92.5625 -96.097656 98.40625 -91.890625 C 104.25 -87.679688 107.171875 -81.550781 107.171875 -73.5 C 107.171875 -69.113281 105.953125 -65.164062 103.515625 -61.65625 C 101.085938 -58.144531 97.488281 -55.457031 92.71875 -53.59375 C 96.1875 -52.46875 99.414062 -50.875 102.40625 -48.8125 C 105.394531 -46.757812 107.800781 -44.09375 109.625 -40.8125 C 111.445312 -37.539062 112.359375 -33.566406 112.359375 -28.890625 C 112.359375 -23.191406 111.28125 -18.472656 109.125 -14.734375 C 106.976562 -10.992188 104.082031 -8.046875 100.4375 -5.890625 C 96.789062 -3.742188 92.789062 -2.222656 88.4375 -1.328125 C 84.09375 -0.441406 79.722656 0 75.328125 0 L 22.171875 0 L 22.171875 -98.203125 Z M 72.390625 -83.609375 L 37.3125 -83.609375 L 37.3125 -58.078125 L 74.0625 -58.078125 C 78.738281 -58.171875 82.851562 -59.335938 86.40625 -61.578125 C 89.96875 -63.828125 91.75 -67.007812 91.75 -71.125 C 91.75 -75.613281 89.875 -78.816406 86.125 -80.734375 C 82.382812 -82.648438 77.804688 -83.609375 72.390625 -83.609375 Z M 74.765625 -43.484375 L 37.3125 -43.484375 L 37.3125 -14.59375 L 75.46875 -14.59375 C 81.738281 -14.59375 86.882812 -15.785156 90.90625 -18.171875 C 94.925781 -20.554688 96.9375 -24.222656 96.9375 -29.171875 C 96.9375 -32.828125 95.789062 -35.679688 93.5 -37.734375 C 91.207031 -39.796875 88.351562 -41.269531 84.9375 -42.15625 C 81.519531 -43.039062 78.128906 -43.484375 74.765625 -43.484375 Z M 74.765625 -43.484375" transform="translate(780.81154, 1543.266152)"/></g></g></g><g fill="#000" fill-opacity="1"><g><g><path d="M 23.984375 0 L 23.984375 -103.8125 L 38.4375 -103.8125 L 38.4375 0 Z M 23.984375 0" transform="translate(908.043636, 1543.266152)"/></g></g></g><g fill="#000" fill-opacity="1"><g><g><path d="M 105.90625 -36.890625 C 105.90625 -29.410156 103.960938 -22.796875 100.078125 -17.046875 C 96.203125 -11.296875 90.828125 -6.78125 83.953125 -3.5 C 77.078125 -0.226562 69.203125 1.40625 60.328125 1.40625 C 51.441406 1.40625 43.5625 -0.226562 36.6875 -3.5 C 29.8125 -6.78125 24.429688 -11.296875 20.546875 -17.046875 C 16.671875 -22.796875 14.734375 -29.410156 14.734375 -36.890625 C 14.734375 -44.367188 16.671875 -50.984375 20.546875 -56.734375 C 24.429688 -62.492188 29.8125 -67.007812 36.6875 -70.28125 C 43.5625 -73.550781 51.441406 -75.1875 60.328125 -75.1875 C 69.203125 -75.1875 77.078125 -73.550781 83.953125 -70.28125 C 90.828125 -67.007812 96.203125 -62.492188 100.078125 -56.734375 C 103.960938 -50.984375 105.90625 -44.367188 105.90625 -36.890625 Z M 91.1875 -36.890625 C 91.28125 -41.847656 89.96875 -46.21875 87.25 -50 C 84.539062 -53.789062 80.847656 -56.738281 76.171875 -58.84375 C 71.492188 -60.945312 66.210938 -62 60.328125 -62 C 54.523438 -62 49.257812 -60.945312 44.53125 -58.84375 C 39.8125 -56.738281 36.070312 -53.789062 33.3125 -50 C 30.550781 -46.21875 29.265625 -41.847656 29.453125 -36.890625 C 29.265625 -32.023438 30.550781 -27.695312 33.3125 -23.90625 C 36.070312 -20.125 39.8125 -17.15625 44.53125 -15 C 49.257812 -12.851562 54.523438 -11.78125 60.328125 -11.78125 C 66.210938 -11.78125 71.492188 -12.851562 76.171875 -15 C 80.847656 -17.15625 84.539062 -20.125 87.25 -23.90625 C 89.96875 -27.695312 91.28125 -32.023438 91.1875 -36.890625 Z M 91.1875 -36.890625" transform="translate(970.747896, 1543.266152)"/></g></g></g><g fill="#000" fill-opacity="1"><g><g><path d="M 33.53125 11.640625 C 36.519531 13.328125 40.46875 15.035156 45.375 16.765625 C 50.289062 18.492188 55.972656 19.359375 62.421875 19.359375 C 70.460938 19.359375 76.914062 17.113281 81.78125 12.625 C 86.644531 8.132812 89.078125 1.632812 89.078125 -6.875 L 89.078125 -12.484375 C 87.578125 -10.148438 85.144531 -7.929688 81.78125 -5.828125 C 78.414062 -3.722656 74.460938 -1.988281 69.921875 -0.625 C 65.390625 0.726562 60.597656 1.40625 55.546875 1.40625 C 47.503906 1.40625 40.421875 -0.226562 34.296875 -3.5 C 28.171875 -6.78125 23.378906 -11.316406 19.921875 -17.109375 C 16.460938 -22.910156 14.734375 -29.503906 14.734375 -36.890625 C 14.734375 -44.367188 16.554688 -50.984375 20.203125 -56.734375 C 23.847656 -62.492188 28.847656 -67.007812 35.203125 -70.28125 C 41.566406 -73.550781 48.910156 -75.1875 57.234375 -75.1875 C 64.523438 -75.1875 71 -73.921875 76.65625 -71.390625 C 82.320312 -68.867188 86.460938 -66.113281 89.078125 -63.125 L 89.078125 -73.640625 L 103.53125 -73.640625 L 103.53125 -8.5625 C 103.53125 -1.445312 102.40625 4.675781 100.15625 9.8125 C 97.914062 14.957031 94.851562 19.191406 90.96875 22.515625 C 87.09375 25.835938 82.695312 28.289062 77.78125 29.875 C 72.875 31.46875 67.753906 32.265625 62.421875 32.265625 C 54.847656 32.265625 48.160156 31.398438 42.359375 29.671875 C 36.566406 27.941406 31.894531 25.859375 28.34375 23.421875 Z M 60.1875 -62 C 54.195312 -62 48.882812 -60.898438 44.25 -58.703125 C 39.625 -56.503906 36 -53.507812 33.375 -49.71875 C 30.757812 -45.9375 29.453125 -41.660156 29.453125 -36.890625 C 29.453125 -32.117188 30.757812 -27.863281 33.375 -24.125 C 36 -20.382812 39.625 -17.414062 44.25 -15.21875 C 48.882812 -13.019531 54.195312 -11.921875 60.1875 -11.921875 C 66.070312 -11.921875 71.210938 -12.992188 75.609375 -15.140625 C 80.003906 -17.296875 83.441406 -20.265625 85.921875 -24.046875 C 88.398438 -27.835938 89.640625 -32.117188 89.640625 -36.890625 C 89.640625 -41.753906 88.398438 -46.054688 85.921875 -49.796875 C 83.441406 -53.535156 80.003906 -56.503906 75.609375 -58.703125 C 71.210938 -60.898438 66.070312 -62 60.1875 -62 Z M 60.1875 -62" transform="translate(1091.386987, 1543.266152)"/></g></g></g><g fill="#000" fill-opacity="1"><g><g><path d="M 139.15625 6.890625 C 212.015625 6.890625 260 -22.1875 259.703125 -64.78125 C 259.703125 -101.359375 230.609375 -120.5625 162.546875 -128.359375 L 117.859375 -134.046875 C 87.265625 -137.65625 74.078125 -144.25 74.375 -155.640625 C 74.375 -171.234375 98.65625 -181.4375 132.546875 -181.734375 C 167.640625 -181.734375 202.125 -169.4375 222.21875 -151.140625 L 242.90625 -185.625 C 219.8125 -206.625 178.140625 -220.421875 132.25 -220.421875 C 62.984375 -220.421875 15.59375 -194.921875 15.296875 -151.4375 C 15.296875 -116.0625 41.984375 -98.0625 103.765625 -90.859375 L 148.75 -84.875 C 185.328125 -80.375 200.921875 -72.28125 200.921875 -59.671875 C 200.921875 -44.078125 177.828125 -33.59375 142.140625 -33.59375 C 96.859375 -33.59375 50.6875 -51.28125 30.28125 -76.171875 L 6 -40.78125 C 30.28125 -12.890625 83.96875 6.890625 139.15625 6.890625 Z M 139.15625 6.890625" transform="translate(260.099641, 1272.071551)"/></g></g></g><g fill="#000" fill-opacity="1"><g><g><path d="M 84.5625 5.390625 C 128.65625 5.390625 164.9375 -10.5 179.9375 -34.484375 L 180.234375 -34.484375 L 180.53125 -30.59375 C 182.9375 -8.390625 202.125 5.390625 231.8125 5.390625 C 252.8125 5.390625 271.703125 -0.90625 281 -10.796875 L 268.40625 -36.59375 C 263.90625 -31.78125 256.703125 -28.484375 249.515625 -28.484375 C 239.90625 -28.484375 234.21875 -34.1875 234.21875 -42.890625 L 234.21875 -100.765625 C 234.21875 -137.953125 190.125 -158.9375 128.359375 -158.9375 C 80.96875 -158.9375 33.28125 -144.546875 7.796875 -123.25 L 24.296875 -93.859375 C 48.875 -113.0625 90.265625 -125.953125 128.65625 -125.953125 C 159.234375 -125.953125 180.53125 -117.25 180.53125 -106.15625 C 180.53125 -101.96875 176.328125 -99.265625 169.734375 -98.65625 L 104.0625 -92.96875 C 40.484375 -87.265625 6 -67.46875 6 -37.78125 C 6 -9.890625 34.78125 5.390625 84.5625 5.390625 Z M 101.96875 -29.09375 C 74.96875 -29.09375 60.875 -35.09375 60.875 -46.1875 C 60.875 -56.984375 76.765625 -63.578125 107.953125 -65.96875 L 179.640625 -71.96875 L 179.640625 -68.078125 C 179.640625 -45.890625 147.546875 -29.09375 101.96875 -29.09375 Z M 101.96875 -29.09375" transform="translate(525.796659, 1272.071551)"/></g></g></g><g fill="#000" fill-opacity="1"><g><g><path d="M 100.15625 68.375 C 179.640625 68.375 231.515625 31.78125 231.515625 -24.59375 L 231.515625 -153.546875 L 176.9375 -153.546875 L 176.9375 -88.765625 C 176.9375 -53.375 153.546875 -30.59375 118.15625 -30.59375 C 87.265625 -30.59375 66.578125 -51.28125 66.578125 -82.765625 L 66.578125 -153.546875 L 11.703125 -153.546875 L 11.390625 -77.078125 C 11.390625 -29.390625 45.890625 3.90625 98.359375 3.90625 C 135.25 3.90625 165.546875 -13.5 176.328125 -40.484375 L 176.640625 -40.484375 L 176.640625 -26.984375 C 176.640625 6.59375 145.140625 27.890625 96.859375 27.890625 C 64.171875 27.890625 29.984375 15.890625 8.390625 1.5 L -10.203125 37.484375 C 11.703125 53.6875 56.078125 68.375 100.15625 68.375 Z M 100.15625 68.375" transform="translate(807.687413, 1272.071551)"/></g></g></g><g fill="#000" fill-opacity="1"><g><g><path d="M 15 0 L 190.734375 0 C 240.515625 0 270.796875 -22.796875 270.796875 -59.078125 C 270.796875 -83.375 255.203125 -102.5625 230.015625 -108.859375 L 230.015625 -109.453125 C 251.609375 -116.359375 264.796875 -133.75 264.796875 -155.34375 C 264.796875 -191.328125 235.40625 -213.515625 187.125 -213.515625 L 15 -213.515625 Z M 75.265625 -125.046875 L 75.265625 -178.140625 L 168.84375 -178.140625 C 190.734375 -178.140625 204.53125 -168.234375 204.53125 -151.75 C 204.53125 -135.25 190.734375 -125.046875 168.84375 -125.046875 Z M 75.265625 -35.390625 L 75.265625 -92.96875 L 171.234375 -92.96875 C 195.234375 -92.96875 210.515625 -81.875 210.515625 -64.171875 C 210.515625 -46.484375 195.234375 -35.390625 171.234375 -35.390625 Z M 75.265625 -35.390625" transform="translate(1051.193083, 1272.071551)"/></g></g></g><g fill="#000" fill-opacity="1"><g><g><path d="M 84.5625 5.390625 C 128.65625 5.390625 164.9375 -10.5 179.9375 -34.484375 L 180.234375 -34.484375 L 180.53125 -30.59375 C 182.9375 -8.390625 202.125 5.390625 231.8125 5.390625 C 252.8125 5.390625 271.703125 -0.90625 281 -10.796875 L 268.40625 -36.59375 C 263.90625 -31.78125 256.703125 -28.484375 249.515625 -28.484375 C 239.90625 -28.484375 234.21875 -34.1875 234.21875 -42.890625 L 234.21875 -100.765625 C 234.21875 -137.953125 190.125 -158.9375 128.359375 -158.9375 C 80.96875 -158.9375 33.28125 -144.546875 7.796875 -123.25 L 24.296875 -93.859375 C 48.875 -113.0625 90.265625 -125.953125 128.65625 -125.953125 C 159.234375 -125.953125 180.53125 -117.25 180.53125 -106.15625 C 180.53125 -101.96875 176.328125 -99.265625 169.734375 -98.65625 L 104.0625 -92.96875 C 40.484375 -87.265625 6 -67.46875 6 -37.78125 C 6 -9.890625 34.78125 5.390625 84.5625 5.390625 Z M 101.96875 -29.09375 C 74.96875 -29.09375 60.875 -35.09375 60.875 -46.1875 C 60.875 -56.984375 76.765625 -63.578125 107.953125 -65.96875 L 179.640625 -71.96875 L 179.640625 -68.078125 C 179.640625 -45.890625 147.546875 -29.09375 101.96875 -29.09375 Z M 101.96875 -29.09375" transform="translate(1328.885494, 1272.071551)"/></g></g></g><g fill="#000" fill-opacity="1"><g><g><path d="M 127.15625 5.390625 C 189.234375 5.390625 237.21875 -21.59375 247.703125 -62.078125 L 196.734375 -71.078125 C 190.125 -46.1875 163.140625 -29.984375 128.359375 -29.984375 C 88.46875 -29.984375 62.078125 -48.28125 62.375 -76.765625 C 62.375 -105.265625 87.5625 -123.5625 125.046875 -123.5625 C 152.640625 -123.5625 172.4375 -111.5625 178.140625 -92.671875 L 229.109375 -102.265625 C 219.515625 -136.453125 177.828125 -158.9375 122.359375 -158.9375 C 53.984375 -158.9375 7.5 -126.25 7.5 -76.765625 C 7.5 -27.296875 55.1875 5.390625 127.15625 5.390625 Z M 127.15625 5.390625" transform="translate(1610.776271, 1272.071551)"/></g></g></g><g fill="#000" fill-opacity="1"><g><g><path d="M 12 0 L 66.875 0 L 66.875 -50.6875 L 92.359375 -67.78125 L 153.84375 0 L 218.3125 0 L 131.359375 -94.765625 L 216.515625 -153.546875 L 145.140625 -153.546875 L 67.171875 -100.15625 L 66.875 -100.15625 L 66.875 -222.515625 L 12 -222.515625 Z M 12 0" transform="translate(1862.978615, 1272.071551)"/></g></g></g><g fill="#000" fill-opacity="1"><g><g><path d="M 134.953125 5.390625 C 177.234375 5.390625 218.015625 -6 239.015625 -22.1875 L 221.625 -49.78125 C 205.421875 -37.78125 172.4375 -28.796875 139.15625 -28.796875 C 103.765625 -28.796875 72.578125 -40.78125 65.96875 -62.984375 L 235.40625 -62.984375 C 236.609375 -67.46875 236.90625 -73.46875 236.90625 -77.078125 C 236.90625 -125.953125 191.328125 -158.9375 124.15625 -158.9375 C 55.484375 -158.9375 7.5 -125.046875 7.5 -77.375 C 7.5 -27.890625 59.671875 5.390625 134.953125 5.390625 Z M 64.78125 -89.671875 C 67.46875 -110.953125 92.0625 -126.25 123.25 -126.25 C 154.75 -126.25 179.640625 -111.859375 181.4375 -89.671875 Z M 64.78125 -89.671875" transform="translate(2081.293975, 1272.071551)"/></g></g></g><g fill="#000" fill-opacity="1"><g><g><path d="M 150.25 -158.9375 C 110.359375 -158.9375 79.765625 -142.140625 65.671875 -115.453125 L 65.375 -115.453125 L 59.671875 -153.546875 L 12 -153.546875 L 12 0 L 66.578125 0 L 66.578125 -69.578125 C 66.578125 -104.65625 89.375 -125.359375 127.15625 -125.359375 C 158.9375 -125.359375 177.234375 -108.5625 177.234375 -80.078125 L 177.234375 0 L 232.109375 0 L 232.109375 -85.765625 C 232.421875 -131.046875 200.625 -158.9375 150.25 -158.9375 Z M 150.25 -158.9375" transform="translate(2331.097185, 1272.071551)"/></g></g></g><g fill="#000" fill-opacity="1"><g><g><path d="M 104.359375 5.390625 C 144.25 5.390625 178.140625 -12 190.734375 -38.6875 L 191.03125 -38.6875 L 197.921875 0 L 245.3125 0 L 245.3125 -222.515625 L 190.4375 -222.515625 L 190.4375 -115.453125 L 190.125 -115.453125 C 177.53125 -141.546875 143.953125 -158.9375 104.0625 -158.9375 C 45.890625 -158.9375 7.5 -126.25 7.5 -76.765625 C 7.5 -27.296875 46.1875 5.390625 104.359375 5.390625 Z M 127.15625 -32.6875 C 88.171875 -32.6875 62.375 -50.375 62.375 -76.765625 C 62.375 -103.15625 88.171875 -120.859375 127.15625 -120.859375 C 166.4375 -120.859375 192.234375 -103.15625 192.234375 -76.765625 C 192.234375 -50.375 166.4375 -32.6875 127.15625 -32.6875 Z M 127.15625 -32.6875" transform="translate(2573.103478, 1272.071551)"/></g></g></g></svg>