<svg xmlns="http://www.w3.org/2000/svg" xmlns:xlink="http://www.w3.org/1999/xlink" width="6912" height="3456" preserveAspectRatio="xMidYMid meet" version="1.0" viewBox="0 0 5184 2592" zoomAndPan="magnify"><defs><clipPath id="7c465d454b"><path d="M 4079.570312 259.101562 L 5183 259.101562 L 5183 2591 L 4079.570312 2591 Z M 4079.570312 259.101562" clip-rule="nonzero"/></clipPath><clipPath id="612a10ecda"><path d="M 5329.972656 259.101562 C 4639.394531 259.101562 4079.570312 818.925781 4079.570312 1509.503906 C 4079.570312 2200.082031 4639.394531 2759.90625 5329.972656 2759.90625 C 6020.550781 2759.90625 6580.375 2200.082031 6580.375 1509.503906 C 6580.375 818.925781 6020.550781 259.101562 5329.972656 259.101562 Z M 5329.972656 259.101562" clip-rule="nonzero"/></clipPath><clipPath id="fd0382a396"><path d="M 2409.761719 1545.914062 L 4079.570312 1545.914062 L 4079.570312 2591 L 2409.761719 2591 Z M 2409.761719 1545.914062" clip-rule="nonzero"/></clipPath><clipPath id="6395092069"><path d="M 3244.664062 1545.914062 C 2783.558594 1545.914062 2409.761719 1919.714844 2409.761719 2380.820312 C 2409.761719 2841.925781 2783.558594 3215.722656 3244.664062 3215.722656 C 3705.769531 3215.722656 4079.570312 2841.925781 4079.570312 2380.820312 C 4079.570312 1919.714844 3705.769531 1545.914062 3244.664062 1545.914062 Z M 3244.664062 1545.914062" clip-rule="nonzero"/></clipPath><clipPath id="fd2818beb5"><path d="M 3244.664062 725.410156 L 3926.609375 725.410156 L 3926.609375 1407.351562 L 3244.664062 1407.351562 Z M 3244.664062 725.410156" clip-rule="nonzero"/></clipPath><clipPath id="24e0a4ad75"><path d="M 3585.636719 725.410156 C 3397.324219 725.410156 3244.664062 878.066406 3244.664062 1066.382812 C 3244.664062 1254.695312 3397.324219 1407.351562 3585.636719 1407.351562 C 3773.949219 1407.351562 3926.609375 1254.695312 3926.609375 1066.382812 C 3926.609375 878.066406 3773.949219 725.410156 3585.636719 725.410156 Z M 3585.636719 725.410156" clip-rule="nonzero"/></clipPath></defs><path fill="#fff" fill-opacity="1" fill-rule="nonzero" d="M 1 0 L 5183 0 L 5183 2591 L 1 2591 Z M 1 0"/><path fill="#f5f5f5" fill-opacity="1" fill-rule="nonzero" d="M 1 0 L 5183 0 L 5183 2591 L 1 2591 Z M 1 0"/><g clip-path="url(#7c465d454b)"><g clip-path="url(#612a10ecda)"><path fill="#282120" fill-opacity="1" fill-rule="nonzero" d="M 4079.570312 259.101562 L 6580.375 259.101562 L 6580.375 2759.90625 L 4079.570312 2759.90625 Z M 4079.570312 259.101562"/></g></g><g clip-path="url(#fd0382a396)"><g clip-path="url(#6395092069)"><path fill="#8c756a" fill-opacity="1" fill-rule="nonzero" d="M 2409.761719 1545.914062 L 4079.570312 1545.914062 L 4079.570312 3215.722656 L 2409.761719 3215.722656 Z M 2409.761719 1545.914062"/></g></g><g clip-path="url(#fd2818beb5)"><g clip-path="url(#24e0a4ad75)"><path fill="#050a30" fill-opacity="1" fill-rule="nonzero" d="M 3244.664062 725.410156 L 3926.609375 725.410156 L 3926.609375 1407.351562 L 3244.664062 1407.351562 Z M 3244.664062 725.410156"/></g></g><g fill="#000" fill-opacity="1"><g><g><path d="M 116.953125 -209.921875 C 137.347656 -209.921875 152.742188 -205.421875 163.140625 -196.421875 C 173.535156 -187.429688 178.734375 -174.335938 178.734375 -157.140625 C 178.734375 -147.742188 176.484375 -139.347656 171.984375 -131.953125 C 167.484375 -124.554688 160.835938 -118.757812 152.046875 -114.5625 C 158.640625 -112.363281 164.785156 -109.015625 170.484375 -104.515625 C 176.179688 -100.015625 180.828125 -94.265625 184.421875 -87.265625 C 188.023438 -80.265625 189.828125 -71.769531 189.828125 -61.78125 C 189.828125 -49.582031 187.726562 -39.484375 183.53125 -31.484375 C 179.332031 -23.492188 173.832031 -17.195312 167.03125 -12.59375 C 160.238281 -8 152.742188 -4.75 144.546875 -2.84375 C 136.347656 -0.945312 128.148438 0 119.953125 0 L 29.390625 0 L 29.390625 -209.921875 Z M 111.5625 -178.734375 L 61.78125 -178.734375 L 61.78125 -122.953125 L 115.15625 -122.953125 C 123.351562 -123.148438 130.597656 -125.648438 136.890625 -130.453125 C 143.191406 -135.253906 146.34375 -142.050781 146.34375 -150.84375 C 146.34375 -160.84375 142.992188 -167.988281 136.296875 -172.28125 C 129.597656 -176.582031 121.351562 -178.734375 111.5625 -178.734375 Z M 116.65625 -91.765625 L 61.78125 -91.765625 L 61.78125 -31.1875 L 118.15625 -31.1875 C 129.550781 -31.1875 138.847656 -33.734375 146.046875 -38.828125 C 153.242188 -43.929688 156.84375 -51.78125 156.84375 -62.375 C 156.84375 -69.96875 154.742188 -75.863281 150.546875 -80.0625 C 146.347656 -84.269531 141.195312 -87.269531 135.09375 -89.0625 C 129 -90.863281 122.851562 -91.765625 116.65625 -91.765625 Z M 116.65625 -91.765625" transform="translate(260.099641, 1198.037845)"/></g></g></g><g fill="#000" fill-opacity="1"><g><g><path d="M 156.84375 -20.6875 L 156.546875 -20.6875 C 150.148438 -14.488281 141.351562 -8.988281 130.15625 -4.1875 C 118.957031 0.601562 107.257812 3 95.0625 3 C 78.664062 3 64.21875 -0.445312 51.71875 -7.34375 C 39.226562 -14.238281 29.484375 -23.734375 22.484375 -35.828125 C 15.492188 -47.929688 12 -61.679688 12 -77.078125 C 12 -94.671875 15.695312 -109.710938 23.09375 -122.203125 C 30.488281 -134.703125 40.285156 -144.300781 52.484375 -151 C 64.679688 -157.695312 77.972656 -161.046875 92.359375 -161.046875 C 105.554688 -161.046875 117.550781 -157.796875 128.34375 -151.296875 C 139.144531 -144.796875 147.742188 -135.847656 154.140625 -124.453125 C 160.535156 -113.054688 163.734375 -99.757812 163.734375 -84.5625 L 163.4375 -71.375 L 42.890625 -71.375 C 44.679688 -57.175781 50.523438 -45.925781 60.421875 -37.625 C 70.316406 -29.332031 82.863281 -25.1875 98.0625 -25.1875 C 109.0625 -25.1875 117.957031 -27.234375 124.75 -31.328125 C 131.550781 -35.429688 137.148438 -39.382812 141.546875 -43.1875 Z M 92.359375 -132.546875 C 80.566406 -132.546875 70.269531 -129.796875 61.46875 -124.296875 C 52.675781 -118.804688 46.878906 -109.363281 44.078125 -95.96875 L 132.25 -95.96875 L 132.25 -98.0625 C 131.65625 -104.863281 129.40625 -110.863281 125.5 -116.0625 C 121.601562 -121.257812 116.753906 -125.304688 110.953125 -128.203125 C 105.160156 -131.097656 98.960938 -132.546875 92.359375 -132.546875 Z M 92.359375 -132.546875" transform="translate(464.320499, 1198.037845)"/></g></g></g><g fill="#000" fill-opacity="1"><g><g><path d="M 112.453125 -116.0625 C 106.859375 -121.65625 100.507812 -126.25 93.40625 -129.84375 C 86.3125 -133.445312 79.765625 -135.25 73.765625 -135.25 C 69.566406 -135.25 65.421875 -134.75 61.328125 -133.75 C 57.234375 -132.75 53.785156 -130.898438 50.984375 -128.203125 C 48.179688 -125.503906 46.78125 -121.554688 46.78125 -116.359375 C 46.976562 -109.160156 50.222656 -104.0625 56.515625 -101.0625 C 62.816406 -98.0625 70.671875 -95.363281 80.078125 -92.96875 C 88.265625 -90.769531 96.253906 -88.019531 104.046875 -84.71875 C 111.847656 -81.414062 118.296875 -76.613281 123.390625 -70.3125 C 128.492188 -64.019531 131.046875 -55.175781 131.046875 -43.78125 C 131.046875 -33.988281 128.296875 -25.59375 122.796875 -18.59375 C 117.304688 -11.59375 110.210938 -6.242188 101.515625 -2.546875 C 92.816406 1.148438 83.671875 3 74.078125 3 C 62.679688 3 51.429688 0.953125 40.328125 -3.140625 C 29.234375 -7.242188 19.789062 -14.296875 12 -24.296875 L 32.984375 -42.28125 C 38.378906 -36.082031 44.523438 -31.234375 51.421875 -27.734375 C 58.328125 -24.234375 66.773438 -22.484375 76.765625 -22.484375 C 80.566406 -22.484375 84.363281 -23.132812 88.15625 -24.4375 C 91.957031 -25.738281 95.207031 -27.835938 97.90625 -30.734375 C 100.613281 -33.640625 101.96875 -37.585938 101.96875 -42.578125 C 101.96875 -47.378906 100.515625 -51.128906 97.609375 -53.828125 C 94.710938 -56.523438 90.863281 -58.722656 86.0625 -60.421875 C 81.269531 -62.128906 75.972656 -63.679688 70.171875 -65.078125 C 61.578125 -67.472656 53.128906 -70.421875 44.828125 -73.921875 C 36.535156 -77.421875 29.640625 -82.414062 24.140625 -88.90625 C 18.640625 -95.40625 15.890625 -104.253906 15.890625 -115.453125 C 15.890625 -124.847656 18.535156 -132.894531 23.828125 -139.59375 C 29.128906 -146.289062 36.078125 -151.488281 44.671875 -155.1875 C 53.273438 -158.882812 62.476562 -160.734375 72.28125 -160.734375 C 81.675781 -160.734375 91.867188 -158.734375 102.859375 -154.734375 C 113.859375 -150.742188 122.957031 -144.347656 130.15625 -135.546875 Z M 112.453125 -116.0625" transform="translate(640.052394, 1198.037845)"/></g></g></g><g fill="#000" fill-opacity="1"><g><g><path d="M 71.96875 0 L 41.078125 0 L 41.078125 -127.453125 L 8.390625 -127.453125 L 8.390625 -157.4375 L 41.078125 -157.4375 L 41.078125 -197.625 L 71.96875 -197.625 L 71.96875 -157.4375 L 108.5625 -157.4375 L 108.5625 -127.453125 L 71.96875 -127.453125 Z M 71.96875 0" transform="translate(783.696722, 1198.037845)"/></g></g></g><g fill="#000" fill-opacity="1"><g><g><path d="M 111.5625 -209.921875 C 127.75 -209.921875 141.988281 -207.171875 154.28125 -201.671875 C 166.582031 -196.171875 176.832031 -188.570312 185.03125 -178.875 C 193.226562 -169.1875 199.425781 -157.992188 203.625 -145.296875 C 207.820312 -132.597656 209.921875 -119.15625 209.921875 -104.96875 C 209.921875 -85.769531 206.222656 -68.222656 198.828125 -52.328125 C 191.429688 -36.429688 180.4375 -23.734375 165.84375 -14.234375 C 151.25 -4.742188 133.15625 0 111.5625 0 L 29.390625 0 L 29.390625 -209.921875 Z M 110.0625 -31.1875 C 125.851562 -31.1875 138.644531 -34.535156 148.4375 -41.234375 C 158.238281 -47.929688 165.4375 -56.878906 170.03125 -68.078125 C 174.632812 -79.273438 176.9375 -91.570312 176.9375 -104.96875 C 176.9375 -118.15625 174.632812 -130.347656 170.03125 -141.546875 C 165.4375 -152.742188 158.238281 -161.738281 148.4375 -168.53125 C 138.644531 -175.332031 125.851562 -178.734375 110.0625 -178.734375 L 61.78125 -178.734375 L 61.78125 -31.1875 Z M 110.0625 -31.1875" transform="translate(982.819553, 1198.037845)"/></g></g></g><g fill="#000" fill-opacity="1"><g><g><path d="M 172.4375 -78.875 C 172.4375 -62.875 168.882812 -48.726562 161.78125 -36.4375 C 154.6875 -24.144531 145.09375 -14.5 133 -7.5 C 120.90625 -0.5 107.359375 3 92.359375 3 C 77.367188 3 63.773438 -0.5 51.578125 -7.5 C 39.378906 -14.5 29.734375 -24.144531 22.640625 -36.4375 C 15.546875 -48.726562 12 -62.875 12 -78.875 C 12 -94.863281 15.546875 -109.003906 22.640625 -121.296875 C 29.734375 -133.597656 39.378906 -143.242188 51.578125 -150.234375 C 63.773438 -157.234375 77.367188 -160.734375 92.359375 -160.734375 C 107.359375 -160.734375 120.90625 -157.234375 133 -150.234375 C 145.09375 -143.242188 154.6875 -133.597656 161.78125 -121.296875 C 168.882812 -109.003906 172.4375 -94.863281 172.4375 -78.875 Z M 140.953125 -78.875 C 141.148438 -89.46875 139.097656 -98.8125 134.796875 -106.90625 C 130.503906 -115.007812 124.65625 -121.304688 117.25 -125.796875 C 109.851562 -130.296875 101.554688 -132.546875 92.359375 -132.546875 C 83.171875 -132.546875 74.828125 -130.296875 67.328125 -125.796875 C 59.828125 -121.304688 53.925781 -115.007812 49.625 -106.90625 C 45.332031 -98.8125 43.285156 -89.46875 43.484375 -78.875 C 43.285156 -68.476562 45.332031 -59.226562 49.625 -51.125 C 53.925781 -43.03125 59.828125 -36.679688 67.328125 -32.078125 C 74.828125 -27.484375 83.171875 -25.1875 92.359375 -25.1875 C 101.554688 -25.1875 109.851562 -27.484375 117.25 -32.078125 C 124.65625 -36.679688 130.503906 -43.03125 134.796875 -51.125 C 139.097656 -59.226562 141.148438 -68.476562 140.953125 -78.875 Z M 140.953125 -78.875" transform="translate(1207.132643, 1198.037845)"/></g></g></g><g fill="#000" fill-opacity="1"><g><g><path d="M 41.390625 -78.875 C 41.390625 -68.476562 43.738281 -59.226562 48.4375 -51.125 C 53.132812 -43.03125 59.332031 -36.632812 67.03125 -31.9375 C 74.726562 -27.238281 82.972656 -24.890625 91.765625 -24.890625 C 101.765625 -24.890625 110.460938 -27.488281 117.859375 -32.6875 C 125.253906 -37.882812 131.25 -43.28125 135.84375 -48.875 L 152.9375 -27.890625 C 149.144531 -22.492188 143.945312 -17.445312 137.34375 -12.75 C 130.75 -8.050781 123.253906 -4.25 114.859375 -1.34375 C 106.460938 1.550781 97.664062 3 88.46875 3 C 74.070312 3 61.078125 -0.597656 49.484375 -7.796875 C 37.890625 -14.992188 28.742188 -24.789062 22.046875 -37.1875 C 15.347656 -49.582031 12 -63.476562 12 -78.875 C 12 -94.46875 15.347656 -108.410156 22.046875 -120.703125 C 28.742188 -133.003906 37.890625 -142.75 49.484375 -149.9375 C 61.078125 -157.132812 74.070312 -160.734375 88.46875 -160.734375 C 103.0625 -160.734375 116.054688 -157.785156 127.453125 -151.890625 C 138.847656 -145.992188 147.34375 -138.347656 152.9375 -128.953125 L 135.84375 -107.953125 C 131.25 -114.753906 124.703125 -120.601562 116.203125 -125.5 C 107.710938 -130.394531 99.46875 -132.84375 91.46875 -132.84375 C 82.070312 -132.84375 73.570312 -130.492188 65.96875 -125.796875 C 58.375 -121.097656 52.378906 -114.703125 47.984375 -106.609375 C 43.585938 -98.515625 41.390625 -89.269531 41.390625 -78.875 Z M 41.390625 -78.875" transform="translate(1391.561205, 1198.037845)"/></g></g></g><g fill="#000" fill-opacity="1"><g><g><path d="M 21.59375 0 L 21.59375 -221.921875 L 52.484375 -221.921875 L 52.484375 -86.96875 L 123.5625 -157.4375 L 165.234375 -157.4375 L 91.46875 -88.171875 L 167.34375 0 L 127.75 0 L 69.578125 -67.78125 L 52.484375 -51.578125 L 52.484375 0 Z M 21.59375 0" transform="translate(1551.999023, 1198.037845)"/></g></g></g><g fill="#000" fill-opacity="1"><g><g><path d="M 156.84375 -20.6875 L 156.546875 -20.6875 C 150.148438 -14.488281 141.351562 -8.988281 130.15625 -4.1875 C 118.957031 0.601562 107.257812 3 95.0625 3 C 78.664062 3 64.21875 -0.445312 51.71875 -7.34375 C 39.226562 -14.238281 29.484375 -23.734375 22.484375 -35.828125 C 15.492188 -47.929688 12 -61.679688 12 -77.078125 C 12 -94.671875 15.695312 -109.710938 23.09375 -122.203125 C 30.488281 -134.703125 40.285156 -144.300781 52.484375 -151 C 64.679688 -157.695312 77.972656 -161.046875 92.359375 -161.046875 C 105.554688 -161.046875 117.550781 -157.796875 128.34375 -151.296875 C 139.144531 -144.796875 147.742188 -135.847656 154.140625 -124.453125 C 160.535156 -113.054688 163.734375 -99.757812 163.734375 -84.5625 L 163.4375 -71.375 L 42.890625 -71.375 C 44.679688 -57.175781 50.523438 -45.925781 60.421875 -37.625 C 70.316406 -29.332031 82.863281 -25.1875 98.0625 -25.1875 C 109.0625 -25.1875 117.957031 -27.234375 124.75 -31.328125 C 131.550781 -35.429688 137.148438 -39.382812 141.546875 -43.1875 Z M 92.359375 -132.546875 C 80.566406 -132.546875 70.269531 -129.796875 61.46875 -124.296875 C 52.675781 -118.804688 46.878906 -109.363281 44.078125 -95.96875 L 132.25 -95.96875 L 132.25 -98.0625 C 131.65625 -104.863281 129.40625 -110.863281 125.5 -116.0625 C 121.601562 -121.257812 116.753906 -125.304688 110.953125 -128.203125 C 105.160156 -131.097656 98.960938 -132.546875 92.359375 -132.546875 Z M 92.359375 -132.546875" transform="translate(1722.332986, 1198.037845)"/></g></g></g><g fill="#000" fill-opacity="1"><g><g><path d="M 109.765625 -124.15625 C 107.765625 -125.15625 105.3125 -126.003906 102.40625 -126.703125 C 99.507812 -127.398438 96.460938 -127.75 93.265625 -127.75 C 86.867188 -127.75 80.570312 -126.097656 74.375 -122.796875 C 68.175781 -119.503906 63.023438 -114.804688 58.921875 -108.703125 C 54.828125 -102.609375 52.78125 -95.363281 52.78125 -86.96875 L 52.78125 0 L 21.59375 0 L 21.59375 -157.4375 L 52.78125 -157.4375 L 52.78125 -127.75 C 57.175781 -137.34375 63.820312 -145.238281 72.71875 -151.4375 C 81.613281 -157.632812 90.960938 -160.734375 100.765625 -160.734375 C 108.160156 -160.734375 113.859375 -159.738281 117.859375 -157.75 Z M 109.765625 -124.15625" transform="translate(1898.064926, 1198.037845)"/></g></g></g><g fill="#000" fill-opacity="1"><g><g><path d="M 107.0625 -126.25 L 69.875 -126.25 L 69.875 0 L 38.6875 0 L 38.6875 -126.25 L 13.5 -126.25 L 13.5 -154.75 L 38.6875 -154.75 L 38.6875 -175.140625 C 38.6875 -188.734375 43.035156 -199.878906 51.734375 -208.578125 C 60.429688 -217.273438 71.675781 -221.625 85.46875 -221.625 C 93.46875 -221.625 100.113281 -220.125 105.40625 -217.125 C 110.707031 -214.125 114.554688 -211.222656 116.953125 -208.421875 L 106.46875 -184.734375 C 104.46875 -186.734375 101.863281 -188.582031 98.65625 -190.28125 C 95.457031 -191.976562 92.257812 -192.828125 89.0625 -192.828125 C 81.863281 -192.828125 76.863281 -191.128906 74.0625 -187.734375 C 71.269531 -184.335938 69.875 -180.140625 69.875 -175.140625 L 69.875 -154.75 L 107.0625 -154.75 Z M 107.0625 -126.25" transform="translate(2018.918076, 1198.037845)"/></g></g></g><g fill="#000" fill-opacity="1"><g><g><path d="M 42.28125 -191.640625 C 35.289062 -191.640625 30.09375 -193.4375 26.6875 -197.03125 C 23.289062 -200.632812 21.59375 -205.332031 21.59375 -211.125 C 21.59375 -216.125 23.289062 -220.625 26.6875 -224.625 C 30.09375 -228.625 35.289062 -230.625 42.28125 -230.625 C 49.28125 -230.625 54.476562 -228.820312 57.875 -225.21875 C 61.28125 -221.625 62.984375 -216.925781 62.984375 -211.125 C 62.984375 -206.125 61.28125 -201.625 57.875 -197.625 C 54.476562 -193.632812 49.28125 -191.640625 42.28125 -191.640625 Z M 58.1875 0 L 27.296875 0 L 27.296875 -157.4375 L 58.1875 -157.4375 Z M 58.1875 0" transform="translate(2136.772383, 1198.037845)"/></g></g></g><g fill="#000" fill-opacity="1"><g><g><path d="M 21.59375 0 L 21.59375 -221.921875 L 52.484375 -221.921875 L 52.484375 0 Z M 21.59375 0" transform="translate(2220.140179, 1198.037845)"/></g></g></g><g fill="#000" fill-opacity="1"><g><g><path d="M 156.84375 -20.6875 L 156.546875 -20.6875 C 150.148438 -14.488281 141.351562 -8.988281 130.15625 -4.1875 C 118.957031 0.601562 107.257812 3 95.0625 3 C 78.664062 3 64.21875 -0.445312 51.71875 -7.34375 C 39.226562 -14.238281 29.484375 -23.734375 22.484375 -35.828125 C 15.492188 -47.929688 12 -61.679688 12 -77.078125 C 12 -94.671875 15.695312 -109.710938 23.09375 -122.203125 C 30.488281 -134.703125 40.285156 -144.300781 52.484375 -151 C 64.679688 -157.695312 77.972656 -161.046875 92.359375 -161.046875 C 105.554688 -161.046875 117.550781 -157.796875 128.34375 -151.296875 C 139.144531 -144.796875 147.742188 -135.847656 154.140625 -124.453125 C 160.535156 -113.054688 163.734375 -99.757812 163.734375 -84.5625 L 163.4375 -71.375 L 42.890625 -71.375 C 44.679688 -57.175781 50.523438 -45.925781 60.421875 -37.625 C 70.316406 -29.332031 82.863281 -25.1875 98.0625 -25.1875 C 109.0625 -25.1875 117.957031 -27.234375 124.75 -31.328125 C 131.550781 -35.429688 137.148438 -39.382812 141.546875 -43.1875 Z M 92.359375 -132.546875 C 80.566406 -132.546875 70.269531 -129.796875 61.46875 -124.296875 C 52.675781 -118.804688 46.878906 -109.363281 44.078125 -95.96875 L 132.25 -95.96875 L 132.25 -98.0625 C 131.65625 -104.863281 129.40625 -110.863281 125.5 -116.0625 C 121.601562 -121.257812 116.753906 -125.304688 110.953125 -128.203125 C 105.160156 -131.097656 98.960938 -132.546875 92.359375 -132.546875 Z M 92.359375 -132.546875" transform="translate(2295.111069, 1198.037845)"/></g></g></g><g fill="#000" fill-opacity="1"><g><g><path d="M 107.0625 -126.25 L 69.875 -126.25 L 69.875 0 L 38.6875 0 L 38.6875 -126.25 L 13.5 -126.25 L 13.5 -154.75 L 38.6875 -154.75 L 38.6875 -175.140625 C 38.6875 -188.734375 43.035156 -199.878906 51.734375 -208.578125 C 60.429688 -217.273438 71.675781 -221.625 85.46875 -221.625 C 93.46875 -221.625 100.113281 -220.125 105.40625 -217.125 C 110.707031 -214.125 114.554688 -211.222656 116.953125 -208.421875 L 106.46875 -184.734375 C 104.46875 -186.734375 101.863281 -188.582031 98.65625 -190.28125 C 95.457031 -191.976562 92.257812 -192.828125 89.0625 -192.828125 C 81.863281 -192.828125 76.863281 -191.128906 74.0625 -187.734375 C 71.269531 -184.335938 69.875 -180.140625 69.875 -175.140625 L 69.875 -154.75 L 107.0625 -154.75 Z M 107.0625 -126.25" transform="translate(260.099641, 1617.875853)"/></g></g></g><g fill="#000" fill-opacity="1"><g><g><path d="M 172.4375 -78.875 C 172.4375 -62.875 168.882812 -48.726562 161.78125 -36.4375 C 154.6875 -24.144531 145.09375 -14.5 133 -7.5 C 120.90625 -0.5 107.359375 3 92.359375 3 C 77.367188 3 63.773438 -0.5 51.578125 -7.5 C 39.378906 -14.5 29.734375 -24.144531 22.640625 -36.4375 C 15.546875 -48.726562 12 -62.875 12 -78.875 C 12 -94.863281 15.546875 -109.003906 22.640625 -121.296875 C 29.734375 -133.597656 39.378906 -143.242188 51.578125 -150.234375 C 63.773438 -157.234375 77.367188 -160.734375 92.359375 -160.734375 C 107.359375 -160.734375 120.90625 -157.234375 133 -150.234375 C 145.09375 -143.242188 154.6875 -133.597656 161.78125 -121.296875 C 168.882812 -109.003906 172.4375 -94.863281 172.4375 -78.875 Z M 140.953125 -78.875 C 141.148438 -89.46875 139.097656 -98.8125 134.796875 -106.90625 C 130.503906 -115.007812 124.65625 -121.304688 117.25 -125.796875 C 109.851562 -130.296875 101.554688 -132.546875 92.359375 -132.546875 C 83.171875 -132.546875 74.828125 -130.296875 67.328125 -125.796875 C 59.828125 -121.304688 53.925781 -115.007812 49.625 -106.90625 C 45.332031 -98.8125 43.285156 -89.46875 43.484375 -78.875 C 43.285156 -68.476562 45.332031 -59.226562 49.625 -51.125 C 53.925781 -43.03125 59.828125 -36.679688 67.328125 -32.078125 C 74.828125 -27.484375 83.171875 -25.1875 92.359375 -25.1875 C 101.554688 -25.1875 109.851562 -27.484375 117.25 -32.078125 C 124.65625 -36.679688 130.503906 -43.03125 134.796875 -51.125 C 139.097656 -59.226562 141.148438 -68.476562 140.953125 -78.875 Z M 140.953125 -78.875" transform="translate(377.953994, 1617.875853)"/></g></g></g><g fill="#000" fill-opacity="1"><g><g><path d="M 109.765625 -124.15625 C 107.765625 -125.15625 105.3125 -126.003906 102.40625 -126.703125 C 99.507812 -127.398438 96.460938 -127.75 93.265625 -127.75 C 86.867188 -127.75 80.570312 -126.097656 74.375 -122.796875 C 68.175781 -119.503906 63.023438 -114.804688 58.921875 -108.703125 C 54.828125 -102.609375 52.78125 -95.363281 52.78125 -86.96875 L 52.78125 0 L 21.59375 0 L 21.59375 -157.4375 L 52.78125 -157.4375 L 52.78125 -127.75 C 57.175781 -137.34375 63.820312 -145.238281 72.71875 -151.4375 C 81.613281 -157.632812 90.960938 -160.734375 100.765625 -160.734375 C 108.160156 -160.734375 113.859375 -159.738281 117.859375 -157.75 Z M 109.765625 -124.15625" transform="translate(562.382556, 1617.875853)"/></g></g></g><g fill="#000" fill-opacity="1"><g><g><path d="M 122.953125 -211.71875 C 134.953125 -211.71875 146.046875 -210.019531 156.234375 -206.625 C 166.429688 -203.226562 175.425781 -198.828125 183.21875 -193.421875 C 191.019531 -188.023438 197.125 -182.226562 201.53125 -176.03125 L 180.53125 -154.140625 C 172.53125 -161.742188 163.734375 -167.992188 154.140625 -172.890625 C 144.546875 -177.785156 134.148438 -180.234375 122.953125 -180.234375 C 108.753906 -180.234375 95.90625 -176.929688 84.40625 -170.328125 C 72.914062 -163.734375 63.867188 -154.785156 57.265625 -143.484375 C 50.671875 -132.191406 47.375 -119.351562 47.375 -104.96875 C 47.375 -90.769531 50.875 -77.867188 57.875 -66.265625 C 64.875 -54.671875 74.222656 -45.472656 85.921875 -38.671875 C 97.617188 -31.878906 110.363281 -28.484375 124.15625 -28.484375 C 134.15625 -28.484375 143.550781 -30.429688 152.34375 -34.328125 C 161.144531 -38.234375 168.289062 -43.582031 173.78125 -50.375 C 179.28125 -57.175781 182.03125 -64.972656 182.03125 -73.765625 C 182.03125 -74.765625 182.03125 -75.367188 182.03125 -75.578125 L 122.359375 -75.578125 L 122.359375 -107.65625 L 215.328125 -107.65625 C 215.722656 -104.65625 216.070312 -101.65625 216.375 -98.65625 C 216.675781 -95.664062 216.828125 -92.671875 216.828125 -89.671875 C 216.828125 -78.671875 215.175781 -67.875 211.875 -57.28125 C 208.570312 -46.6875 203.421875 -37.488281 196.421875 -29.6875 C 188.429688 -19.6875 178.085938 -11.738281 165.390625 -5.84375 C 152.691406 0.0507812 138.644531 3 123.25 3 C 108.0625 3 93.867188 0.25 80.671875 -5.25 C 67.472656 -10.75 55.875 -18.394531 45.875 -28.1875 C 35.882812 -37.988281 28.140625 -49.4375 22.640625 -62.53125 C 17.140625 -75.625 14.390625 -89.769531 14.390625 -104.96875 C 14.390625 -120.15625 17.140625 -134.195312 22.640625 -147.09375 C 28.140625 -159.988281 35.835938 -171.285156 45.734375 -180.984375 C 55.628906 -190.679688 67.171875 -198.226562 80.359375 -203.625 C 93.554688 -209.019531 107.753906 -211.71875 122.953125 -211.71875 Z M 122.953125 -211.71875" transform="translate(767.203216, 1617.875853)"/></g></g></g><g fill="#000" fill-opacity="1"><g><g><path d="M 172.4375 -78.875 C 172.4375 -62.875 168.882812 -48.726562 161.78125 -36.4375 C 154.6875 -24.144531 145.09375 -14.5 133 -7.5 C 120.90625 -0.5 107.359375 3 92.359375 3 C 77.367188 3 63.773438 -0.5 51.578125 -7.5 C 39.378906 -14.5 29.734375 -24.144531 22.640625 -36.4375 C 15.546875 -48.726562 12 -62.875 12 -78.875 C 12 -94.863281 15.546875 -109.003906 22.640625 -121.296875 C 29.734375 -133.597656 39.378906 -143.242188 51.578125 -150.234375 C 63.773438 -157.234375 77.367188 -160.734375 92.359375 -160.734375 C 107.359375 -160.734375 120.90625 -157.234375 133 -150.234375 C 145.09375 -143.242188 154.6875 -133.597656 161.78125 -121.296875 C 168.882812 -109.003906 172.4375 -94.863281 172.4375 -78.875 Z M 140.953125 -78.875 C 141.148438 -89.46875 139.097656 -98.8125 134.796875 -106.90625 C 130.503906 -115.007812 124.65625 -121.304688 117.25 -125.796875 C 109.851562 -130.296875 101.554688 -132.546875 92.359375 -132.546875 C 83.171875 -132.546875 74.828125 -130.296875 67.328125 -125.796875 C 59.828125 -121.304688 53.925781 -115.007812 49.625 -106.90625 C 45.332031 -98.8125 43.285156 -89.46875 43.484375 -78.875 C 43.285156 -68.476562 45.332031 -59.226562 49.625 -51.125 C 53.925781 -43.03125 59.828125 -36.679688 67.328125 -32.078125 C 74.828125 -27.484375 83.171875 -25.1875 92.359375 -25.1875 C 101.554688 -25.1875 109.851562 -27.484375 117.25 -32.078125 C 124.65625 -36.679688 130.503906 -43.03125 134.796875 -51.125 C 139.097656 -59.226562 141.148438 -68.476562 140.953125 -78.875 Z M 140.953125 -78.875" transform="translate(996.914193, 1617.875853)"/></g></g></g><g fill="#000" fill-opacity="1"><g><g><path d="M 21.59375 0 L 21.59375 -221.921875 L 52.484375 -221.921875 L 52.484375 0 Z M 21.59375 0" transform="translate(1181.342755, 1617.875853)"/></g></g></g><g fill="#000" fill-opacity="1"><g><g><path d="M 168.234375 -157.4375 L 168.234375 0 L 137.046875 0 L 137.046875 -24.296875 C 132.253906 -17.691406 125.15625 -11.488281 115.75 -5.6875 C 106.351562 0.101562 95.457031 3 83.0625 3 C 69.875 3 57.832031 -0.5 46.9375 -7.5 C 36.039062 -14.5 27.390625 -24.195312 20.984375 -36.59375 C 14.585938 -48.988281 11.390625 -63.179688 11.390625 -79.171875 C 11.390625 -95.160156 14.6875 -109.300781 21.28125 -121.59375 C 27.882812 -133.894531 36.984375 -143.492188 48.578125 -150.390625 C 60.171875 -157.285156 73.367188 -160.734375 88.171875 -160.734375 C 99.160156 -160.734375 108.800781 -158.332031 117.09375 -153.53125 C 125.394531 -148.738281 132.046875 -143.144531 137.046875 -136.75 L 137.046875 -157.4375 Z M 90.265625 -25.484375 C 99.859375 -25.484375 108.253906 -27.832031 115.453125 -32.53125 C 122.648438 -37.226562 128.25 -43.625 132.25 -51.71875 C 136.25 -59.820312 138.25 -68.972656 138.25 -79.171875 C 138.25 -89.171875 136.25 -98.164062 132.25 -106.15625 C 128.25 -114.15625 122.648438 -120.503906 115.453125 -125.203125 C 108.253906 -129.898438 99.859375 -132.25 90.265625 -132.25 C 81.066406 -132.25 72.867188 -129.945312 65.671875 -125.34375 C 58.472656 -120.75 52.875 -114.453125 48.875 -106.453125 C 44.882812 -98.460938 42.890625 -89.367188 42.890625 -79.171875 C 42.890625 -68.972656 44.882812 -59.820312 48.875 -51.71875 C 52.875 -43.625 58.472656 -37.226562 65.671875 -32.53125 C 72.867188 -27.832031 81.066406 -25.484375 90.265625 -25.484375 Z M 90.265625 -25.484375" transform="translate(1256.313645, 1617.875853)"/></g></g></g><g fill="#000" fill-opacity="1"><g><g><path d="M 104.0625 -160.734375 C 118.257812 -160.734375 129.253906 -157.832031 137.046875 -152.03125 C 144.847656 -146.238281 150.296875 -138.441406 153.390625 -128.640625 C 156.492188 -118.847656 158.046875 -107.957031 158.046875 -95.96875 L 158.046875 0 L 127.15625 0 L 127.15625 -93.859375 C 127.15625 -101.460938 126.15625 -108.257812 124.15625 -114.25 C 122.15625 -120.25 118.753906 -124.945312 113.953125 -128.34375 C 109.160156 -131.75 102.460938 -133.148438 93.859375 -132.546875 C 85.867188 -132.546875 78.773438 -130.847656 72.578125 -127.453125 C 66.378906 -124.054688 61.476562 -119.554688 57.875 -113.953125 C 54.28125 -108.359375 52.484375 -102.160156 52.484375 -95.359375 L 52.484375 0 L 21.59375 0 L 21.59375 -157.4375 L 52.484375 -157.4375 L 52.484375 -132.546875 C 57.273438 -139.941406 64.269531 -146.488281 73.46875 -152.1875 C 82.664062 -157.882812 92.863281 -160.734375 104.0625 -160.734375 Z M 104.0625 -160.734375" transform="translate(1446.140087, 1617.875853)"/></g></g></g><g fill="#000" fill-opacity="1"><g><g><path d="M 43.1875 26.09375 C 49.1875 30.6875 56.679688 34.382812 65.671875 37.1875 C 74.671875 39.988281 83.46875 41.390625 92.0625 41.390625 C 108.257812 41.390625 120.65625 37.4375 129.25 29.53125 C 137.84375 21.632812 142.140625 9.789062 142.140625 -6 L 142.140625 -25.1875 C 139.347656 -20.394531 135.351562 -15.847656 130.15625 -11.546875 C 124.957031 -7.242188 118.859375 -3.742188 111.859375 -1.046875 C 104.859375 1.648438 97.5625 3 89.96875 3 C 75.375 3 62.175781 -0.5 50.375 -7.5 C 38.582031 -14.5 29.238281 -24.195312 22.34375 -36.59375 C 15.445312 -48.988281 12 -63.082031 12 -78.875 C 12 -94.863281 15.394531 -109.003906 22.1875 -121.296875 C 28.988281 -133.597656 38.234375 -143.242188 49.921875 -150.234375 C 61.617188 -157.234375 74.664062 -160.734375 89.0625 -160.734375 C 101.0625 -160.734375 111.707031 -158.082031 121 -152.78125 C 130.300781 -147.488281 137.347656 -141.742188 142.140625 -135.546875 L 142.140625 -157.4375 L 173.03125 -157.4375 L 173.03125 -9.59375 C 173.03125 9.195312 169.28125 24.335938 161.78125 35.828125 C 154.289062 47.328125 144.394531 55.722656 132.09375 61.015625 C 119.800781 66.316406 106.457031 68.96875 92.0625 68.96875 C 80.863281 68.96875 69.71875 67.21875 58.625 63.71875 C 47.53125 60.226562 38.582031 55.679688 31.78125 50.078125 Z M 93.265625 -132.546875 C 83.671875 -132.546875 75.125 -130.195312 67.625 -125.5 C 60.125 -120.800781 54.222656 -114.40625 49.921875 -106.3125 C 45.628906 -98.21875 43.484375 -89.070312 43.484375 -78.875 C 43.484375 -68.675781 45.628906 -59.578125 49.921875 -51.578125 C 54.222656 -43.578125 60.125 -37.226562 67.625 -32.53125 C 75.125 -27.832031 83.671875 -25.484375 93.265625 -25.484375 C 103.265625 -25.484375 112.007812 -27.78125 119.5 -32.375 C 127 -36.976562 132.847656 -43.328125 137.046875 -51.421875 C 141.242188 -59.523438 143.34375 -68.675781 143.34375 -78.875 C 143.34375 -89.269531 141.242188 -98.460938 137.046875 -106.453125 C 132.847656 -114.453125 127 -120.800781 119.5 -125.5 C 112.007812 -130.195312 103.265625 -132.546875 93.265625 -132.546875 Z M 93.265625 -132.546875" transform="translate(1624.570963, 1617.875853)"/></g></g></g><g fill="#000" fill-opacity="1"><g><g><path d="M 80.390625 3.984375 C 122.484375 3.984375 150.203125 -12.828125 150.03125 -37.421875 C 150.03125 -58.5625 133.234375 -69.640625 93.90625 -74.15625 L 68.09375 -77.4375 C 50.421875 -79.515625 42.796875 -83.328125 42.96875 -89.921875 C 42.96875 -98.921875 57 -104.8125 76.578125 -104.984375 C 96.84375 -104.984375 116.765625 -97.890625 128.375 -87.3125 L 140.328125 -107.234375 C 127 -119.375 102.90625 -127.34375 76.40625 -127.34375 C 36.375 -127.34375 9.015625 -112.609375 8.828125 -87.484375 C 8.828125 -67.046875 24.25 -56.65625 59.9375 -52.5 L 85.9375 -49.03125 C 107.0625 -46.4375 116.078125 -41.75 116.078125 -34.484375 C 116.078125 -25.46875 102.734375 -19.40625 82.125 -19.40625 C 55.953125 -19.40625 29.28125 -29.625 17.5 -44 L 3.46875 -23.5625 C 17.5 -7.453125 48.515625 3.984375 80.390625 3.984375 Z M 80.390625 3.984375" transform="translate(260.099641, 226.429954)"/></g></g></g><g fill="#000" fill-opacity="1"><g><g><path d="M 48.859375 3.125 C 74.328125 3.125 95.28125 -6.0625 103.953125 -19.921875 L 104.125 -19.921875 L 104.296875 -17.671875 C 105.6875 -4.84375 116.765625 3.125 133.921875 3.125 C 146.046875 3.125 156.96875 -0.515625 162.328125 -6.234375 L 155.0625 -21.140625 C 152.453125 -18.359375 148.296875 -16.453125 144.140625 -16.453125 C 138.59375 -16.453125 135.3125 -19.75 135.3125 -24.78125 L 135.3125 -58.21875 C 135.3125 -79.6875 109.84375 -91.828125 74.15625 -91.828125 C 46.78125 -91.828125 19.234375 -83.5 4.5 -71.203125 L 14.03125 -54.234375 C 28.234375 -65.3125 52.140625 -72.765625 74.328125 -72.765625 C 92 -72.765625 104.296875 -67.734375 104.296875 -61.328125 C 104.296875 -58.90625 101.875 -57.34375 98.0625 -57 L 60.125 -53.703125 C 23.390625 -50.421875 3.46875 -38.984375 3.46875 -21.828125 C 3.46875 -5.71875 20.09375 3.125 48.859375 3.125 Z M 58.90625 -16.8125 C 43.3125 -16.8125 35.171875 -20.265625 35.171875 -26.6875 C 35.171875 -32.921875 44.359375 -36.734375 62.375 -38.109375 L 103.78125 -41.578125 L 103.78125 -39.328125 C 103.78125 -26.5 85.234375 -16.8125 58.90625 -16.8125 Z M 58.90625 -16.8125" transform="translate(413.596685, 226.429954)"/></g></g></g><g fill="#000" fill-opacity="1"><g><g><path d="M 57.859375 39.5 C 103.78125 39.5 133.75 18.359375 133.75 -14.203125 L 133.75 -88.703125 L 102.21875 -88.703125 L 102.21875 -51.28125 C 102.21875 -30.84375 88.703125 -17.671875 68.265625 -17.671875 C 50.421875 -17.671875 38.46875 -29.625 38.46875 -47.8125 L 38.46875 -88.703125 L 6.75 -88.703125 L 6.578125 -44.53125 C 6.578125 -16.984375 26.5 2.25 56.828125 2.25 C 78.140625 2.25 95.640625 -7.796875 101.875 -23.390625 L 102.046875 -23.390625 L 102.046875 -15.59375 C 102.046875 3.8125 83.859375 16.109375 55.953125 16.109375 C 37.078125 16.109375 17.328125 9.1875 4.84375 0.859375 L -5.890625 21.65625 C 6.75 31.015625 32.390625 39.5 57.859375 39.5 Z M 57.859375 39.5" transform="translate(576.449087, 226.429954)"/></g></g></g><g fill="#000" fill-opacity="1"><g><g><path d="M 8.65625 0 L 110.1875 0 C 138.953125 0 156.4375 -13.171875 156.4375 -34.125 C 156.4375 -48.15625 147.4375 -59.25 132.875 -62.890625 L 132.875 -63.234375 C 145.359375 -67.21875 152.984375 -77.265625 152.984375 -89.75 C 152.984375 -110.53125 136 -123.359375 108.109375 -123.359375 L 8.65625 -123.359375 Z M 43.484375 -72.25 L 43.484375 -102.90625 L 97.546875 -102.90625 C 110.1875 -102.90625 118.15625 -97.1875 118.15625 -87.671875 C 118.15625 -78.140625 110.1875 -72.25 97.546875 -72.25 Z M 43.484375 -20.4375 L 43.484375 -53.703125 L 98.921875 -53.703125 C 112.78125 -53.703125 121.625 -47.296875 121.625 -37.078125 C 121.625 -26.859375 112.78125 -20.4375 98.921875 -20.4375 Z M 43.484375 -20.4375" transform="translate(717.125866, 226.429954)"/></g></g></g><g fill="#000" fill-opacity="1"><g><g><path d="M 48.859375 3.125 C 74.328125 3.125 95.28125 -6.0625 103.953125 -19.921875 L 104.125 -19.921875 L 104.296875 -17.671875 C 105.6875 -4.84375 116.765625 3.125 133.921875 3.125 C 146.046875 3.125 156.96875 -0.515625 162.328125 -6.234375 L 155.0625 -21.140625 C 152.453125 -18.359375 148.296875 -16.453125 144.140625 -16.453125 C 138.59375 -16.453125 135.3125 -19.75 135.3125 -24.78125 L 135.3125 -58.21875 C 135.3125 -79.6875 109.84375 -91.828125 74.15625 -91.828125 C 46.78125 -91.828125 19.234375 -83.5 4.5 -71.203125 L 14.03125 -54.234375 C 28.234375 -65.3125 52.140625 -72.765625 74.328125 -72.765625 C 92 -72.765625 104.296875 -67.734375 104.296875 -61.328125 C 104.296875 -58.90625 101.875 -57.34375 98.0625 -57 L 60.125 -53.703125 C 23.390625 -50.421875 3.46875 -38.984375 3.46875 -21.828125 C 3.46875 -5.71875 20.09375 3.125 48.859375 3.125 Z M 58.90625 -16.8125 C 43.3125 -16.8125 35.171875 -20.265625 35.171875 -26.6875 C 35.171875 -32.921875 44.359375 -36.734375 62.375 -38.109375 L 103.78125 -41.578125 L 103.78125 -39.328125 C 103.78125 -26.5 85.234375 -16.8125 58.90625 -16.8125 Z M 58.90625 -16.8125" transform="translate(877.552824, 226.429954)"/></g></g></g><g fill="#000" fill-opacity="1"><g><g><path d="M 73.453125 3.125 C 109.328125 3.125 137.046875 -12.46875 143.109375 -35.859375 L 113.65625 -41.0625 C 109.84375 -26.6875 94.25 -17.328125 74.15625 -17.328125 C 51.109375 -17.328125 35.859375 -27.890625 36.03125 -44.359375 C 36.03125 -60.8125 50.59375 -71.375 72.25 -71.375 C 88.1875 -71.375 99.625 -64.453125 102.90625 -53.53125 L 132.359375 -59.078125 C 126.8125 -78.828125 102.734375 -91.828125 70.6875 -91.828125 C 31.1875 -91.828125 4.328125 -72.9375 4.328125 -44.359375 C 4.328125 -15.765625 31.875 3.125 73.453125 3.125 Z M 73.453125 3.125" transform="translate(1040.405239, 226.429954)"/></g></g></g><g fill="#000" fill-opacity="1"><g><g><path d="M 6.9375 0 L 38.640625 0 L 38.640625 -29.28125 L 53.359375 -39.15625 L 88.875 0 L 126.125 0 L 75.890625 -54.75 L 125.09375 -88.703125 L 83.859375 -88.703125 L 38.8125 -57.859375 L 38.640625 -57.859375 L 38.640625 -128.546875 L 6.9375 -128.546875 Z M 6.9375 0" transform="translate(1186.106214, 226.429954)"/></g></g></g><g fill="#000" fill-opacity="1"><g><g><path d="M 77.96875 3.125 C 102.390625 3.125 125.953125 -3.46875 138.078125 -12.828125 L 128.03125 -28.765625 C 118.671875 -21.828125 99.625 -16.625 80.390625 -16.625 C 59.9375 -16.625 41.921875 -23.5625 38.109375 -36.375 L 136 -36.375 C 136.6875 -38.984375 136.875 -42.453125 136.875 -44.53125 C 136.875 -72.765625 110.53125 -91.828125 71.71875 -91.828125 C 32.046875 -91.828125 4.328125 -72.25 4.328125 -44.703125 C 4.328125 -16.109375 34.484375 3.125 77.96875 3.125 Z M 37.421875 -51.796875 C 38.984375 -64.109375 53.1875 -72.9375 71.203125 -72.9375 C 89.390625 -72.9375 103.78125 -64.625 104.8125 -51.796875 Z M 37.421875 -51.796875" transform="translate(1312.230183, 226.429954)"/></g></g></g><g fill="#000" fill-opacity="1"><g><g><path d="M 86.796875 -91.828125 C 63.75 -91.828125 46.078125 -82.125 37.9375 -66.703125 L 37.765625 -66.703125 L 34.484375 -88.703125 L 6.9375 -88.703125 L 6.9375 0 L 38.46875 0 L 38.46875 -40.1875 C 38.46875 -60.46875 51.625 -72.421875 73.453125 -72.421875 C 91.828125 -72.421875 102.390625 -62.71875 102.390625 -46.25 L 102.390625 0 L 134.09375 0 L 134.09375 -49.546875 C 134.265625 -75.703125 115.90625 -91.828125 86.796875 -91.828125 Z M 86.796875 -91.828125" transform="translate(1456.545142, 226.429954)"/></g></g></g><g fill="#000" fill-opacity="1"><g><g><path d="M 60.296875 3.125 C 83.328125 3.125 102.90625 -6.9375 110.1875 -22.34375 L 110.359375 -22.34375 L 114.34375 0 L 141.71875 0 L 141.71875 -128.546875 L 110.015625 -128.546875 L 110.015625 -66.703125 L 109.84375 -66.703125 C 102.5625 -81.78125 83.15625 -91.828125 60.125 -91.828125 C 26.5 -91.828125 4.328125 -72.9375 4.328125 -44.359375 C 4.328125 -15.765625 26.6875 3.125 60.296875 3.125 Z M 73.453125 -18.890625 C 50.9375 -18.890625 36.03125 -29.109375 36.03125 -44.359375 C 36.03125 -59.59375 50.9375 -69.8125 73.453125 -69.8125 C 96.15625 -69.8125 111.046875 -59.59375 111.046875 -44.359375 C 111.046875 -29.109375 96.15625 -18.890625 73.453125 -18.890625 Z M 73.453125 -18.890625" transform="translate(1596.355709, 226.429954)"/></g></g></g></svg>