<svg xmlns="http://www.w3.org/2000/svg" width="1200" height="630" viewBox="0 0 1200 630"><defs><linearGradient id="bgBase" x1="0%" x2="100%" y1="0%" y2="100%"><stop offset="0%" stop-color="#F8FAFC"/><stop offset="100%" stop-color="#F1F5F9"/></linearGradient><linearGradient id="cardGrad" x1="0%" x2="0%" y1="0%" y2="100%"><stop offset="0%" stop-color="#FFF"/><stop offset="100%" stop-color="#F8FAFC"/></linearGradient><filter id="hugeBlur" width="200%" height="200%" x="-50%" y="-50%"><feGaussianBlur stdDeviation="120"/></filter><filter id="appShadow" width="140%" height="140%" x="-20%" y="-20%"><feDropShadow dx="0" dy="16" flood-color="#0F172A" flood-opacity=".08" stdDeviation="24"/><feDropShadow dx="0" dy="4" flood-color="#0F172A" flood-opacity=".04" stdDeviation="8"/></filter></defs><rect width="1200" height="630" fill="url(#bgBase)"/><circle cx="150" cy="630" r="500" fill="#818CF8" filter="url(#hugeBlur)" opacity=".15"/><circle cx="0" cy="500" r="400" fill="#334155" filter="url(#hugeBlur)" opacity=".1"/><circle cx="1050" cy="0" r="500" fill="#F59E0B" filter="url(#hugeBlur)" opacity=".15"/><circle cx="1200" cy="150" r="400" fill="#FCD34D" filter="url(#hugeBlur)" opacity=".1"/><g transform="translate(0, -20)"><rect width="224" height="224" x="488" y="110" fill="url(#cardGrad)" stroke="#E2E8F0" stroke-width="1.5" filter="url(#appShadow)" rx="52"/><g transform="translate(488, 110) scale(3.5)"><path fill="#334155" d="M 24 17 A 8 8 0 0 0 24 33 A 8.5 8.5 0 0 1 24 17 Z"/><circle cx="40" cy="25" r="8" fill="#F59E0B"/><path fill="none" stroke="#334155" stroke-linecap="round" stroke-width="4.5" d="M 18 41 Q 32 54 46 41"/></g><text x="600" y="440" fill="#0F172A" font-family="-apple-system, BlinkMacSystemFont, 'Segoe UI', Roboto, Helvetica, Arial, sans-serif" font-size="76" font-weight="800" letter-spacing="-1.5" text-anchor="middle">happymode</text><text x="600" y="500" fill="#64748B" font-family="-apple-system, BlinkMacSystemFont, 'Segoe UI', Roboto, Helvetica, Arial, sans-serif" font-size="30" font-weight="500" letter-spacing="-.5" text-anchor="middle">Auto-toggles macOS Light &amp; Dark mode by the sun.</text><g transform="translate(544, 540)"><rect width="112" height="34" x="0" y="0" fill="#FFF" stroke="#CBD5E1" stroke-width="1.5" opacity=".8" rx="17"/><text x="56" y="22" fill="#475569" font-family="-apple-system, BlinkMacSystemFont, 'Segoe UI', Roboto, Helvetica, Arial, sans-serif" font-size="13" font-weight="700" letter-spacing="1.2" text-anchor="middle">FOR macOS</text></g></g></svg>