<svg xmlns="http://www.w3.org/2000/svg" width="1200" height="630" fill="none" role="img" aria-labelledby="title desc" viewBox="0 0 1200 630">
  <title id="title">How to lint AI-generated code and keep it somewhat slop-free</title>
  <desc id="desc">SayBackend editorial poster showing an AI agent moving through Oxlint and TypeScript, with measured lint policy counts.</desc>
  <metadata>
    Oxc mark sourced from oxc-project/oxc-project.github.io public/logo-without-border.svg.
    TypeScript mark sourced from microsoft/TypeScript-Website static/branding/ts-logo-512.svg.
  </metadata>
  <defs>
    <linearGradient id="warm" x1="0" x2="1200" y1="0" y2="630" gradientUnits="userSpaceOnUse">
      <stop stop-color="#FAF9F6"/>
      <stop offset="1" stop-color="#F3F5F4"/>
    </linearGradient>
    <filter id="softShadow" width="140%" height="150%" x="-20%" y="-20%" color-interpolation-filters="sRGB">
      <feDropShadow dx="0" dy="10" flood-color="#171714" flood-opacity=".08" stdDeviation="13"/>
    </filter>
    <pattern id="microGrid" width="28" height="28" patternUnits="userSpaceOnUse">
      <path stroke="#171714" stroke-opacity=".035" d="M28 0H0V28"/>
    </pattern>
  </defs>

  <rect width="1200" height="630" fill="url(#warm)"/>
  <rect width="1200" height="630" fill="url(#microGrid)"/>
  <circle cx="1035" cy="111" r="184" fill="#3178C6" opacity=".055"/>
  <circle cx="770" cy="560" r="172" fill="#FF5B00" opacity=".045"/>

  <g font-family="Arial, Helvetica, sans-serif">
    <text x="80" y="82" fill="#171714" font-size="26" font-weight="800" letter-spacing="3">BLOG—18</text>

    <text x="80" y="160" fill="#171714" font-size="49" font-weight="900" letter-spacing="-1.6">HOW TO LINT</text>
    <text x="80" y="226" fill="#FF5B00" font-size="57" font-weight="900" letter-spacing="-2.2">AI-GENERATED</text>
    <text x="80" y="288" fill="#171714" font-size="57" font-weight="900" letter-spacing="-2.2">CODE</text>
    <text x="80" y="345" fill="#171714" font-size="43" font-weight="900" letter-spacing="-1.4">KEEP IT SOMEWHAT</text>
    <text x="80" y="414" fill="#171714" font-size="64" font-weight="900" letter-spacing="-2.4">SLOP-FREE</text>
    <path stroke="#FF5B00" stroke-linecap="round" stroke-width="7" d="M81 435h330"/>
    <path fill="#FF5B00" d="m410 425 19 10-19 10z"/>

    <text x="692" y="80" fill="#171714" font-family="Arial, Helvetica, sans-serif" font-size="14" font-weight="800" letter-spacing="2.2">GENERATION → ENFORCEMENT</text>

    <g filter="url(#softShadow)">
      <rect width="122" height="122" x="692" y="116" fill="#FFF" stroke="#D9D7D0" stroke-width="2" rx="22"/>
      <rect width="122" height="122" x="849" y="116" fill="#111827" rx="22"/>
      <rect width="122" height="122" x="1006" y="116" fill="#3178C6" rx="22"/>
    </g>

    <g transform="translate(716 138)">
      <path stroke="#171714" stroke-linecap="round" stroke-linejoin="round" stroke-width="5" d="m18 23-12 15 12 15M57 23l12 15-12 15M47 14 31 62"/>
      <path fill="#FF5B00" d="m69 3 3.2 9.8L82 16l-9.8 3.2L69 29l-3.2-9.8L56 16l9.8-3.2L69 3Z"/>
      <circle cx="17" cy="70" r="4" fill="#FF5B00"/>
      <path stroke="#FF5B00" stroke-linecap="round" stroke-width="4" d="M29 70h33"/>
    </g>

    <g transform="translate(885 145) scale(1.35)">
      <path fill="#32F3EF" d="M30.316 6.789c0 1.249 1.013 2.262 2.262 2.262h8.583c1.008 0 1.512 1.219.799 1.93L30.978 21.963a2.262 2.262 0 0 0-.664 1.6v3.755c0 1.562 1.549 2.645 2.919 1.9a22.7 22.7 0 0 0 3.869-2.727c.465-.416 1.18-.42 1.622.024l7.999 7.998c.441.442.443 1.159-.013 1.585a33.88 33.88 0 0 1-23.184 9.153A33.88 33.88 0 0 1 .343 36.098c-.456-.426-.454-1.143-.013-1.585l7.999-7.998c.441-.442 1.157-.44 1.622-.024a22.7 22.7 0 0 0 3.869 2.727c1.372.745 2.919-.338 2.919-1.9v-3.755c0-.601-.239-1.176-.664-1.6L5.093 10.981c-.713-.713-.209-1.93.8-1.93h8.582a2.262 2.262 0 0 0 2.262-2.262V1.132C16.737.507 17.243 0 17.868 0h11.311c.625 0 1.131.507 1.131 1.132v5.657h.006Z"/>
    </g>

    <g transform="translate(1028 138) scale(.153)">
      <rect width="512" height="512" fill="#3178C6" rx="50"/>
      <path fill="#FFF" fill-rule="evenodd" d="M316.939 407.424v50.061c8.138 4.172 17.763 7.3 28.875 9.386S368.637 470 380.949 470c11.999 0 23.397-1.147 34.196-3.442 10.799-2.294 20.268-6.075 28.406-11.342 8.138-5.266 14.581-12.15 19.328-20.65S470 415.559 470 403.044c0-9.074-1.356-17.026-4.069-23.857s-6.625-12.906-11.738-18.225c-5.112-5.319-11.242-10.091-18.389-14.315s-15.207-8.213-24.18-11.967c-6.573-2.712-12.468-5.345-17.685-7.9-5.217-2.556-9.651-5.163-13.303-7.822-3.652-2.66-6.469-5.476-8.451-8.448-1.982-2.973-2.974-6.336-2.974-10.091 0-3.441.887-6.544 2.661-9.308s4.278-5.136 7.512-7.118c3.235-1.981 7.199-3.52 11.894-4.615 4.696-1.095 9.912-1.642 15.651-1.642 4.173 0 8.581.313 13.224.938 4.643.626 9.312 1.591 14.008 2.894 4.695 1.304 9.259 2.947 13.694 4.928 4.434 1.982 8.529 4.276 12.285 6.884v-46.776c-7.616-2.92-15.937-5.084-24.962-6.492S415.797 238 404.112 238c-11.895 0-23.163 1.278-33.805 3.833s-20.006 6.544-28.093 11.967c-8.086 5.424-14.476 12.333-19.171 20.729-4.695 8.395-7.043 18.433-7.043 30.114 0 14.914 4.304 27.638 12.912 38.172 8.607 10.533 21.675 19.45 39.204 26.751 6.886 2.816 13.303 5.579 19.25 8.291s11.086 5.528 15.415 8.448c4.33 2.92 7.747 6.101 10.252 9.543 2.504 3.441 3.756 7.352 3.756 11.733 0 3.233-.783 6.231-2.348 8.995s-3.939 5.162-7.121 7.196-7.147 3.624-11.894 4.771c-4.748 1.148-10.303 1.721-16.668 1.721-10.851 0-21.597-1.903-32.24-5.71-10.642-3.806-20.502-9.516-29.579-17.13ZM232.78 284.082H297V243H118v41.082h63.906V467h50.874V284.082Z" clip-rule="evenodd"/>
    </g>

    <path stroke="#AAA8A0" stroke-linecap="round" stroke-width="3" d="M821 177h21"/>
    <path fill="#171714" d="m841 171 10 6-10 6z"/>
    <path stroke="#AAA8A0" stroke-linecap="round" stroke-width="3" d="M978 177h21"/>
    <path fill="#171714" d="m998 171 10 6-10 6z"/>

    <text x="753" y="266" fill="#6D6C66" font-size="13" font-weight="800" letter-spacing="1.8" text-anchor="middle">AGENT</text>
    <text x="910" y="266" fill="#6D6C66" font-size="13" font-weight="800" letter-spacing="1.8" text-anchor="middle">OXLINT</text>
    <text x="1067" y="266" fill="#6D6C66" font-size="13" font-weight="800" letter-spacing="1.8" text-anchor="middle">TYPES</text>

    <g transform="translate(692 304)">
      <rect width="436" height="230" fill="#171714" rx="22"/>
      <text x="28" y="38" fill="#FFF" font-size="17" font-weight="800" letter-spacing="1.8">POLICY, MEASURED</text>
      <path stroke="#FFF" stroke-opacity=".16" d="M28 57h380"/>

      <text x="28" y="102" fill="#FF5B00" font-size="34" font-weight="900">28</text>
      <text x="103" y="92" fill="#FFF" font-size="14" font-weight="800" letter-spacing="1.2">ZERO-HIT RULES</text>
      <text x="103" y="113" fill="#AAA8A0" font-size="14">promote directly to error</text>

      <text x="28" y="157" fill="#6CAFF0" font-size="31" font-weight="900">1,977</text>
      <text x="132" y="147" fill="#FFF" font-size="14" font-weight="800" letter-spacing="1.2">EXISTING FINDINGS</text>
      <text x="132" y="168" fill="#AAA8A0" font-size="14">warnings plus a touched-file ratchet</text>

      <text x="28" y="203" fill="#32F3EF" font-size="31" font-weight="900">15</text>
      <text x="103" y="193" fill="#FFF" font-size="14" font-weight="800" letter-spacing="1.2">VENDORED RULES</text>
      <text x="103" y="214" fill="#AAA8A0" font-size="14">read, count, then adapt</text>
    </g>

    <rect width="560" height="108" x="54" y="500" fill="#FF5B00"/>
    <rect width="560" height="108" x="62" y="488" fill="#171714"/>
    <text x="342" y="557" fill="#FFF" font-size="58" font-weight="900" text-anchor="middle">SayBackend</text>
    <text x="910" y="585" fill="#171714" font-size="14" font-weight="800" letter-spacing="1.5" text-anchor="middle">LINT THE PATTERN · REVIEW THE INTENT</text>
  </g>
</svg>
