<svg xmlns="http://www.w3.org/2000/svg" xmlns:xlink="http://www.w3.org/1999/xlink" width="6912" height="3456" preserveAspectRatio="xMidYMid meet" version="1.0" viewBox="0 0 5184 2592" zoomAndPan="magnify"><defs><clipPath id="24791a89b3"><path d="M 4079.570312 259.101562 L 5183 259.101562 L 5183 2591 L 4079.570312 2591 Z M 4079.570312 259.101562" clip-rule="nonzero"/></clipPath><clipPath id="5460b084f3"><path d="M 5329.972656 259.101562 C 4639.394531 259.101562 4079.570312 818.925781 4079.570312 1509.503906 C 4079.570312 2200.082031 4639.394531 2759.90625 5329.972656 2759.90625 C 6020.550781 2759.90625 6580.375 2200.082031 6580.375 1509.503906 C 6580.375 818.925781 6020.550781 259.101562 5329.972656 259.101562 Z M 5329.972656 259.101562" clip-rule="nonzero"/></clipPath><clipPath id="70d7ff2a60"><path d="M 2409.761719 1545.914062 L 4079.570312 1545.914062 L 4079.570312 2591 L 2409.761719 2591 Z M 2409.761719 1545.914062" clip-rule="nonzero"/></clipPath><clipPath id="914fc7bca9"><path d="M 3244.664062 1545.914062 C 2783.558594 1545.914062 2409.761719 1919.714844 2409.761719 2380.820312 C 2409.761719 2841.925781 2783.558594 3215.722656 3244.664062 3215.722656 C 3705.769531 3215.722656 4079.570312 2841.925781 4079.570312 2380.820312 C 4079.570312 1919.714844 3705.769531 1545.914062 3244.664062 1545.914062 Z M 3244.664062 1545.914062" clip-rule="nonzero"/></clipPath><clipPath id="bfa81a4e60"><path d="M 3244.664062 725.410156 L 3926.609375 725.410156 L 3926.609375 1407.351562 L 3244.664062 1407.351562 Z M 3244.664062 725.410156" clip-rule="nonzero"/></clipPath><clipPath id="d63c47d063"><path d="M 3585.636719 725.410156 C 3397.324219 725.410156 3244.664062 878.066406 3244.664062 1066.382812 C 3244.664062 1254.695312 3397.324219 1407.351562 3585.636719 1407.351562 C 3773.949219 1407.351562 3926.609375 1254.695312 3926.609375 1066.382812 C 3926.609375 878.066406 3773.949219 725.410156 3585.636719 725.410156 Z M 3585.636719 725.410156" clip-rule="nonzero"/></clipPath></defs><path fill="#fff" fill-opacity="1" fill-rule="nonzero" d="M 1 0 L 5183 0 L 5183 2591 L 1 2591 Z M 1 0"/><path fill="#f5f5f5" fill-opacity="1" fill-rule="nonzero" d="M 1 0 L 5183 0 L 5183 2591 L 1 2591 Z M 1 0"/><g clip-path="url(#24791a89b3)"><g clip-path="url(#5460b084f3)"><path fill="#282120" fill-opacity="1" fill-rule="nonzero" d="M 4079.570312 259.101562 L 6580.375 259.101562 L 6580.375 2759.90625 L 4079.570312 2759.90625 Z M 4079.570312 259.101562"/></g></g><g clip-path="url(#70d7ff2a60)"><g clip-path="url(#914fc7bca9)"><path fill="#8c756a" fill-opacity="1" fill-rule="nonzero" d="M 2409.761719 1545.914062 L 4079.570312 1545.914062 L 4079.570312 3215.722656 L 2409.761719 3215.722656 Z M 2409.761719 1545.914062"/></g></g><g clip-path="url(#bfa81a4e60)"><g clip-path="url(#d63c47d063)"><path fill="#050a30" fill-opacity="1" fill-rule="nonzero" d="M 3244.664062 725.410156 L 3926.609375 725.410156 L 3926.609375 1407.351562 L 3244.664062 1407.351562 Z M 3244.664062 725.410156"/></g></g><g fill="#000" fill-opacity="1"><g><g><path d="M 37.1875 -63.28125 C 45.382812 -51.476562 53.929688 -42.328125 62.828125 -35.828125 C 71.722656 -29.335938 83.269531 -26.09375 97.46875 -26.09375 C 104.257812 -26.09375 110.753906 -27.191406 116.953125 -29.390625 C 123.148438 -31.585938 128.25 -34.785156 132.25 -38.984375 C 136.25 -43.179688 138.25 -48.179688 138.25 -53.984375 C 138.25 -63.972656 134 -71.765625 125.5 -77.359375 C 117.007812 -82.960938 105.066406 -87.265625 89.671875 -90.265625 C 70.078125 -94.265625 54.476562 -101.210938 42.875 -111.109375 C 31.28125 -121.003906 25.484375 -135.347656 25.484375 -154.140625 C 25.484375 -166.140625 28.832031 -176.535156 35.53125 -185.328125 C 42.226562 -194.128906 51.078125 -200.925781 62.078125 -205.71875 C 73.078125 -210.519531 84.972656 -212.921875 97.765625 -212.921875 C 114.359375 -212.921875 128.648438 -209.722656 140.640625 -203.328125 C 152.640625 -196.929688 162.039062 -187.832031 168.84375 -176.03125 L 146.046875 -153.546875 C 140.648438 -162.535156 133.851562 -169.828125 125.65625 -175.421875 C 117.457031 -181.023438 107.859375 -183.828125 96.859375 -183.828125 C 85.867188 -183.828125 76.625 -181.273438 69.125 -176.171875 C 61.625 -171.078125 57.875 -164.035156 57.875 -155.046875 C 57.875 -144.847656 61.820312 -137.398438 69.71875 -132.703125 C 77.613281 -128.003906 88.0625 -124.253906 101.0625 -121.453125 C 112.851562 -119.054688 124.046875 -115.359375 134.640625 -110.359375 C 145.242188 -105.359375 153.894531 -98.910156 160.59375 -91.015625 C 167.289062 -83.117188 170.640625 -73.570312 170.640625 -62.375 C 170.640625 -42.382812 163.84375 -26.488281 150.25 -14.6875 C 136.65625 -2.894531 117.960938 3 94.171875 3 C 77.972656 3 63.222656 -0.195312 49.921875 -6.59375 C 36.628906 -12.988281 24.988281 -23.382812 15 -37.78125 Z M 37.1875 -63.28125" transform="translate(260.099641, 1198.037845)"/></g></g></g><g fill="#000" fill-opacity="1"><g><g><path d="M 71.96875 0 L 41.078125 0 L 41.078125 -127.453125 L 8.390625 -127.453125 L 8.390625 -157.4375 L 41.078125 -157.4375 L 41.078125 -197.625 L 71.96875 -197.625 L 71.96875 -157.4375 L 108.5625 -157.4375 L 108.5625 -127.453125 L 71.96875 -127.453125 Z M 71.96875 0" transform="translate(447.227102, 1198.037845)"/></g></g></g><g fill="#000" fill-opacity="1"><g><g><path d="M 172.4375 -78.875 C 172.4375 -62.875 168.882812 -48.726562 161.78125 -36.4375 C 154.6875 -24.144531 145.09375 -14.5 133 -7.5 C 120.90625 -0.5 107.359375 3 92.359375 3 C 77.367188 3 63.773438 -0.5 51.578125 -7.5 C 39.378906 -14.5 29.734375 -24.144531 22.640625 -36.4375 C 15.546875 -48.726562 12 -62.875 12 -78.875 C 12 -94.863281 15.546875 -109.003906 22.640625 -121.296875 C 29.734375 -133.597656 39.378906 -143.242188 51.578125 -150.234375 C 63.773438 -157.234375 77.367188 -160.734375 92.359375 -160.734375 C 107.359375 -160.734375 120.90625 -157.234375 133 -150.234375 C 145.09375 -143.242188 154.6875 -133.597656 161.78125 -121.296875 C 168.882812 -109.003906 172.4375 -94.863281 172.4375 -78.875 Z M 140.953125 -78.875 C 141.148438 -89.46875 139.097656 -98.8125 134.796875 -106.90625 C 130.503906 -115.007812 124.65625 -121.304688 117.25 -125.796875 C 109.851562 -130.296875 101.554688 -132.546875 92.359375 -132.546875 C 83.171875 -132.546875 74.828125 -130.296875 67.328125 -125.796875 C 59.828125 -121.304688 53.925781 -115.007812 49.625 -106.90625 C 45.332031 -98.8125 43.285156 -89.46875 43.484375 -78.875 C 43.285156 -68.476562 45.332031 -59.226562 49.625 -51.125 C 53.925781 -43.03125 59.828125 -36.679688 67.328125 -32.078125 C 74.828125 -27.484375 83.171875 -25.1875 92.359375 -25.1875 C 101.554688 -25.1875 109.851562 -27.484375 117.25 -32.078125 C 124.65625 -36.679688 130.503906 -43.03125 134.796875 -51.125 C 139.097656 -59.226562 141.148438 -68.476562 140.953125 -78.875 Z M 140.953125 -78.875" transform="translate(562.382468, 1198.037845)"/></g></g></g><g fill="#000" fill-opacity="1"><g><g><path d="M 109.765625 -124.15625 C 107.765625 -125.15625 105.3125 -126.003906 102.40625 -126.703125 C 99.507812 -127.398438 96.460938 -127.75 93.265625 -127.75 C 86.867188 -127.75 80.570312 -126.097656 74.375 -122.796875 C 68.175781 -119.503906 63.023438 -114.804688 58.921875 -108.703125 C 54.828125 -102.609375 52.78125 -95.363281 52.78125 -86.96875 L 52.78125 0 L 21.59375 0 L 21.59375 -157.4375 L 52.78125 -157.4375 L 52.78125 -127.75 C 57.175781 -137.34375 63.820312 -145.238281 72.71875 -151.4375 C 81.613281 -157.632812 90.960938 -160.734375 100.765625 -160.734375 C 108.160156 -160.734375 113.859375 -159.738281 117.859375 -157.75 Z M 109.765625 -124.15625" transform="translate(746.81103, 1198.037845)"/></g></g></g><g fill="#000" fill-opacity="1"><g><g><path d="M 156.84375 -20.6875 L 156.546875 -20.6875 C 150.148438 -14.488281 141.351562 -8.988281 130.15625 -4.1875 C 118.957031 0.601562 107.257812 3 95.0625 3 C 78.664062 3 64.21875 -0.445312 51.71875 -7.34375 C 39.226562 -14.238281 29.484375 -23.734375 22.484375 -35.828125 C 15.492188 -47.929688 12 -61.679688 12 -77.078125 C 12 -94.671875 15.695312 -109.710938 23.09375 -122.203125 C 30.488281 -134.703125 40.285156 -144.300781 52.484375 -151 C 64.679688 -157.695312 77.972656 -161.046875 92.359375 -161.046875 C 105.554688 -161.046875 117.550781 -157.796875 128.34375 -151.296875 C 139.144531 -144.796875 147.742188 -135.847656 154.140625 -124.453125 C 160.535156 -113.054688 163.734375 -99.757812 163.734375 -84.5625 L 163.4375 -71.375 L 42.890625 -71.375 C 44.679688 -57.175781 50.523438 -45.925781 60.421875 -37.625 C 70.316406 -29.332031 82.863281 -25.1875 98.0625 -25.1875 C 109.0625 -25.1875 117.957031 -27.234375 124.75 -31.328125 C 131.550781 -35.429688 137.148438 -39.382812 141.546875 -43.1875 Z M 92.359375 -132.546875 C 80.566406 -132.546875 70.269531 -129.796875 61.46875 -124.296875 C 52.675781 -118.804688 46.878906 -109.363281 44.078125 -95.96875 L 132.25 -95.96875 L 132.25 -98.0625 C 131.65625 -104.863281 129.40625 -110.863281 125.5 -116.0625 C 121.601562 -121.257812 116.753906 -125.304688 110.953125 -128.203125 C 105.160156 -131.097656 98.960938 -132.546875 92.359375 -132.546875 Z M 92.359375 -132.546875" transform="translate(867.664225, 1198.037845)"/></g></g></g><g fill="#000" fill-opacity="1"><g><g><path d="M 177.828125 -209.921875 L 177.828125 -186.53125 L 62.671875 -31.1875 L 181.140625 -31.1875 L 181.140625 0 L 18 0 L 18 -23.6875 L 133.75 -178.734375 L 25.796875 -178.734375 L 25.796875 -209.921875 Z M 177.828125 -209.921875" transform="translate(1127.363584, 1198.037845)"/></g></g></g><g fill="#000" fill-opacity="1"><g><g><path d="M 128.953125 -62.671875 L 128.953125 -157.4375 L 159.84375 -157.4375 L 159.84375 0 L 128.953125 0 L 128.953125 -25.1875 C 124.359375 -17.789062 117.609375 -11.242188 108.703125 -5.546875 C 99.804688 0.148438 89.160156 3 76.765625 3 C 60.378906 3 47.085938 -2.597656 36.890625 -13.796875 C 26.691406 -24.992188 21.59375 -40.488281 21.59375 -60.28125 L 21.59375 -157.4375 L 52.484375 -157.4375 L 52.484375 -68.671875 C 52.484375 -60.671875 53.734375 -53.269531 56.234375 -46.46875 C 58.734375 -39.675781 62.726562 -34.226562 68.21875 -30.125 C 73.71875 -26.03125 80.769531 -23.984375 89.375 -23.984375 C 100.164062 -23.984375 109.457031 -27.382812 117.25 -34.1875 C 125.050781 -40.988281 128.953125 -50.484375 128.953125 -62.671875 Z M 128.953125 -62.671875" transform="translate(1324.98704, 1198.037845)"/></g></g></g><g fill="#000" fill-opacity="1"><g><g><path d="M 112.453125 -116.0625 C 106.859375 -121.65625 100.507812 -126.25 93.40625 -129.84375 C 86.3125 -133.445312 79.765625 -135.25 73.765625 -135.25 C 69.566406 -135.25 65.421875 -134.75 61.328125 -133.75 C 57.234375 -132.75 53.785156 -130.898438 50.984375 -128.203125 C 48.179688 -125.503906 46.78125 -121.554688 46.78125 -116.359375 C 46.976562 -109.160156 50.222656 -104.0625 56.515625 -101.0625 C 62.816406 -98.0625 70.671875 -95.363281 80.078125 -92.96875 C 88.265625 -90.769531 96.253906 -88.019531 104.046875 -84.71875 C 111.847656 -81.414062 118.296875 -76.613281 123.390625 -70.3125 C 128.492188 -64.019531 131.046875 -55.175781 131.046875 -43.78125 C 131.046875 -33.988281 128.296875 -25.59375 122.796875 -18.59375 C 117.304688 -11.59375 110.210938 -6.242188 101.515625 -2.546875 C 92.816406 1.148438 83.671875 3 74.078125 3 C 62.679688 3 51.429688 0.953125 40.328125 -3.140625 C 29.234375 -7.242188 19.789062 -14.296875 12 -24.296875 L 32.984375 -42.28125 C 38.378906 -36.082031 44.523438 -31.234375 51.421875 -27.734375 C 58.328125 -24.234375 66.773438 -22.484375 76.765625 -22.484375 C 80.566406 -22.484375 84.363281 -23.132812 88.15625 -24.4375 C 91.957031 -25.738281 95.207031 -27.835938 97.90625 -30.734375 C 100.613281 -33.640625 101.96875 -37.585938 101.96875 -42.578125 C 101.96875 -47.378906 100.515625 -51.128906 97.609375 -53.828125 C 94.710938 -56.523438 90.863281 -58.722656 86.0625 -60.421875 C 81.269531 -62.128906 75.972656 -63.679688 70.171875 -65.078125 C 61.578125 -67.472656 53.128906 -70.421875 44.828125 -73.921875 C 36.535156 -77.421875 29.640625 -82.414062 24.140625 -88.90625 C 18.640625 -95.40625 15.890625 -104.253906 15.890625 -115.453125 C 15.890625 -124.847656 18.535156 -132.894531 23.828125 -139.59375 C 29.128906 -146.289062 36.078125 -151.488281 44.671875 -155.1875 C 53.273438 -158.882812 62.476562 -160.734375 72.28125 -160.734375 C 81.675781 -160.734375 91.867188 -158.734375 102.859375 -154.734375 C 113.859375 -150.742188 122.957031 -144.347656 130.15625 -135.546875 Z M 112.453125 -116.0625" transform="translate(1506.416759, 1198.037845)"/></g></g></g><g fill="#000" fill-opacity="1"><g><g><path d="M 71.96875 0 L 41.078125 0 L 41.078125 -127.453125 L 8.390625 -127.453125 L 8.390625 -157.4375 L 41.078125 -157.4375 L 41.078125 -197.625 L 71.96875 -197.625 L 71.96875 -157.4375 L 108.5625 -157.4375 L 108.5625 -127.453125 L 71.96875 -127.453125 Z M 71.96875 0" transform="translate(1650.061042, 1198.037845)"/></g></g></g><g fill="#000" fill-opacity="1"><g><g><path d="M 168.234375 -157.4375 L 168.234375 0 L 137.046875 0 L 137.046875 -24.296875 C 132.253906 -17.691406 125.15625 -11.488281 115.75 -5.6875 C 106.351562 0.101562 95.457031 3 83.0625 3 C 69.875 3 57.832031 -0.5 46.9375 -7.5 C 36.039062 -14.5 27.390625 -24.195312 20.984375 -36.59375 C 14.585938 -48.988281 11.390625 -63.179688 11.390625 -79.171875 C 11.390625 -95.160156 14.6875 -109.300781 21.28125 -121.59375 C 27.882812 -133.894531 36.984375 -143.492188 48.578125 -150.390625 C 60.171875 -157.285156 73.367188 -160.734375 88.171875 -160.734375 C 99.160156 -160.734375 108.800781 -158.332031 117.09375 -153.53125 C 125.394531 -148.738281 132.046875 -143.144531 137.046875 -136.75 L 137.046875 -157.4375 Z M 90.265625 -25.484375 C 99.859375 -25.484375 108.253906 -27.832031 115.453125 -32.53125 C 122.648438 -37.226562 128.25 -43.625 132.25 -51.71875 C 136.25 -59.820312 138.25 -68.972656 138.25 -79.171875 C 138.25 -89.171875 136.25 -98.164062 132.25 -106.15625 C 128.25 -114.15625 122.648438 -120.503906 115.453125 -125.203125 C 108.253906 -129.898438 99.859375 -132.25 90.265625 -132.25 C 81.066406 -132.25 72.867188 -129.945312 65.671875 -125.34375 C 58.472656 -120.75 52.875 -114.453125 48.875 -106.453125 C 44.882812 -98.460938 42.890625 -89.367188 42.890625 -79.171875 C 42.890625 -68.972656 44.882812 -59.820312 48.875 -51.71875 C 52.875 -43.625 58.472656 -37.226562 65.671875 -32.53125 C 72.867188 -27.832031 81.066406 -25.484375 90.265625 -25.484375 Z M 90.265625 -25.484375" transform="translate(1765.216408, 1198.037845)"/></g></g></g><g fill="#000" fill-opacity="1"><g><g><path d="M 104.0625 -160.734375 C 118.257812 -160.734375 129.253906 -157.832031 137.046875 -152.03125 C 144.847656 -146.238281 150.296875 -138.441406 153.390625 -128.640625 C 156.492188 -118.847656 158.046875 -107.957031 158.046875 -95.96875 L 158.046875 0 L 127.15625 0 L 127.15625 -93.859375 C 127.15625 -101.460938 126.15625 -108.257812 124.15625 -114.25 C 122.15625 -120.25 118.753906 -124.945312 113.953125 -128.34375 C 109.160156 -131.75 102.460938 -133.148438 93.859375 -132.546875 C 85.867188 -132.546875 78.773438 -130.847656 72.578125 -127.453125 C 66.378906 -124.054688 61.476562 -119.554688 57.875 -113.953125 C 54.28125 -108.359375 52.484375 -102.160156 52.484375 -95.359375 L 52.484375 0 L 21.59375 0 L 21.59375 -157.4375 L 52.484375 -157.4375 L 52.484375 -132.546875 C 57.273438 -139.941406 64.269531 -146.488281 73.46875 -152.1875 C 82.664062 -157.882812 92.863281 -160.734375 104.0625 -160.734375 Z M 104.0625 -160.734375" transform="translate(1955.042947, 1198.037845)"/></g></g></g><g fill="#000" fill-opacity="1"><g><g><path d="M 169.140625 -221.921875 L 169.140625 0 L 138.25 0 L 138.25 -22.1875 C 133.65625 -15.988281 126.859375 -10.238281 117.859375 -4.9375 C 108.859375 0.351562 98.660156 3 87.265625 3 C 73.066406 3 60.269531 -0.5 48.875 -7.5 C 37.476562 -14.5 28.484375 -24.195312 21.890625 -36.59375 C 15.296875 -48.988281 12 -63.082031 12 -78.875 C 12 -94.863281 15.296875 -109.003906 21.890625 -121.296875 C 28.484375 -133.597656 37.378906 -143.242188 48.578125 -150.234375 C 59.773438 -157.234375 72.375 -160.734375 86.375 -160.734375 C 97.5625 -160.734375 107.703125 -158.4375 116.796875 -153.84375 C 125.898438 -149.25 133.050781 -143.851562 138.25 -137.65625 L 138.25 -221.921875 Z M 91.46875 -23.6875 C 101.0625 -23.6875 109.457031 -26.085938 116.65625 -30.890625 C 123.851562 -35.691406 129.453125 -42.289062 133.453125 -50.6875 C 137.453125 -59.082031 139.453125 -68.476562 139.453125 -78.875 C 139.453125 -89.46875 137.453125 -98.910156 133.453125 -107.203125 C 129.453125 -115.503906 123.851562 -122.050781 116.65625 -126.84375 C 109.457031 -131.644531 101.0625 -134.046875 91.46875 -134.046875 C 82.070312 -134.046875 73.773438 -131.644531 66.578125 -126.84375 C 59.378906 -122.050781 53.726562 -115.503906 49.625 -107.203125 C 45.53125 -98.910156 43.484375 -89.46875 43.484375 -78.875 C 43.484375 -68.476562 45.53125 -59.082031 49.625 -50.6875 C 53.726562 -42.289062 59.378906 -35.691406 66.578125 -30.890625 C 73.773438 -26.085938 82.070312 -23.6875 91.46875 -23.6875 Z M 91.46875 -23.6875" transform="translate(2133.473734, 1198.037845)"/></g></g></g><g fill="#000" fill-opacity="1"><g><g><path d="M 37.1875 -63.28125 C 45.382812 -51.476562 53.929688 -42.328125 62.828125 -35.828125 C 71.722656 -29.335938 83.269531 -26.09375 97.46875 -26.09375 C 104.257812 -26.09375 110.753906 -27.191406 116.953125 -29.390625 C 123.148438 -31.585938 128.25 -34.785156 132.25 -38.984375 C 136.25 -43.179688 138.25 -48.179688 138.25 -53.984375 C 138.25 -63.972656 134 -71.765625 125.5 -77.359375 C 117.007812 -82.960938 105.066406 -87.265625 89.671875 -90.265625 C 70.078125 -94.265625 54.476562 -101.210938 42.875 -111.109375 C 31.28125 -121.003906 25.484375 -135.347656 25.484375 -154.140625 C 25.484375 -166.140625 28.832031 -176.535156 35.53125 -185.328125 C 42.226562 -194.128906 51.078125 -200.925781 62.078125 -205.71875 C 73.078125 -210.519531 84.972656 -212.921875 97.765625 -212.921875 C 114.359375 -212.921875 128.648438 -209.722656 140.640625 -203.328125 C 152.640625 -196.929688 162.039062 -187.832031 168.84375 -176.03125 L 146.046875 -153.546875 C 140.648438 -162.535156 133.851562 -169.828125 125.65625 -175.421875 C 117.457031 -181.023438 107.859375 -183.828125 96.859375 -183.828125 C 85.867188 -183.828125 76.625 -181.273438 69.125 -176.171875 C 61.625 -171.078125 57.875 -164.035156 57.875 -155.046875 C 57.875 -144.847656 61.820312 -137.398438 69.71875 -132.703125 C 77.613281 -128.003906 88.0625 -124.253906 101.0625 -121.453125 C 112.851562 -119.054688 124.046875 -115.359375 134.640625 -110.359375 C 145.242188 -105.359375 153.894531 -98.910156 160.59375 -91.015625 C 167.289062 -83.117188 170.640625 -73.570312 170.640625 -62.375 C 170.640625 -42.382812 163.84375 -26.488281 150.25 -14.6875 C 136.65625 -2.894531 117.960938 3 94.171875 3 C 77.972656 3 63.222656 -0.195312 49.921875 -6.59375 C 36.628906 -12.988281 24.988281 -23.382812 15 -37.78125 Z M 37.1875 -63.28125" transform="translate(260.099641, 1617.875853)"/></g></g></g><g fill="#000" fill-opacity="1"><g><g><path d="M 71.96875 0 L 41.078125 0 L 41.078125 -127.453125 L 8.390625 -127.453125 L 8.390625 -157.4375 L 41.078125 -157.4375 L 41.078125 -197.625 L 71.96875 -197.625 L 71.96875 -157.4375 L 108.5625 -157.4375 L 108.5625 -127.453125 L 71.96875 -127.453125 Z M 71.96875 0" transform="translate(447.227102, 1617.875853)"/></g></g></g><g fill="#000" fill-opacity="1"><g><g><path d="M 168.234375 -157.4375 L 168.234375 0 L 137.046875 0 L 137.046875 -24.296875 C 132.253906 -17.691406 125.15625 -11.488281 115.75 -5.6875 C 106.351562 0.101562 95.457031 3 83.0625 3 C 69.875 3 57.832031 -0.5 46.9375 -7.5 C 36.039062 -14.5 27.390625 -24.195312 20.984375 -36.59375 C 14.585938 -48.988281 11.390625 -63.179688 11.390625 -79.171875 C 11.390625 -95.160156 14.6875 -109.300781 21.28125 -121.59375 C 27.882812 -133.894531 36.984375 -143.492188 48.578125 -150.390625 C 60.171875 -157.285156 73.367188 -160.734375 88.171875 -160.734375 C 99.160156 -160.734375 108.800781 -158.332031 117.09375 -153.53125 C 125.394531 -148.738281 132.046875 -143.144531 137.046875 -136.75 L 137.046875 -157.4375 Z M 90.265625 -25.484375 C 99.859375 -25.484375 108.253906 -27.832031 115.453125 -32.53125 C 122.648438 -37.226562 128.25 -43.625 132.25 -51.71875 C 136.25 -59.820312 138.25 -68.972656 138.25 -79.171875 C 138.25 -89.171875 136.25 -98.164062 132.25 -106.15625 C 128.25 -114.15625 122.648438 -120.503906 115.453125 -125.203125 C 108.253906 -129.898438 99.859375 -132.25 90.265625 -132.25 C 81.066406 -132.25 72.867188 -129.945312 65.671875 -125.34375 C 58.472656 -120.75 52.875 -114.453125 48.875 -106.453125 C 44.882812 -98.460938 42.890625 -89.367188 42.890625 -79.171875 C 42.890625 -68.972656 44.882812 -59.820312 48.875 -51.71875 C 52.875 -43.625 58.472656 -37.226562 65.671875 -32.53125 C 72.867188 -27.832031 81.066406 -25.484375 90.265625 -25.484375 Z M 90.265625 -25.484375" transform="translate(562.382468, 1617.875853)"/></g></g></g><g fill="#000" fill-opacity="1"><g><g><path d="M 71.96875 0 L 41.078125 0 L 41.078125 -127.453125 L 8.390625 -127.453125 L 8.390625 -157.4375 L 41.078125 -157.4375 L 41.078125 -197.625 L 71.96875 -197.625 L 71.96875 -157.4375 L 108.5625 -157.4375 L 108.5625 -127.453125 L 71.96875 -127.453125 Z M 71.96875 0" transform="translate(752.20891, 1617.875853)"/></g></g></g><g fill="#000" fill-opacity="1"><g><g><path d="M 156.84375 -20.6875 L 156.546875 -20.6875 C 150.148438 -14.488281 141.351562 -8.988281 130.15625 -4.1875 C 118.957031 0.601562 107.257812 3 95.0625 3 C 78.664062 3 64.21875 -0.445312 51.71875 -7.34375 C 39.226562 -14.238281 29.484375 -23.734375 22.484375 -35.828125 C 15.492188 -47.929688 12 -61.679688 12 -77.078125 C 12 -94.671875 15.695312 -109.710938 23.09375 -122.203125 C 30.488281 -134.703125 40.285156 -144.300781 52.484375 -151 C 64.679688 -157.695312 77.972656 -161.046875 92.359375 -161.046875 C 105.554688 -161.046875 117.550781 -157.796875 128.34375 -151.296875 C 139.144531 -144.796875 147.742188 -135.847656 154.140625 -124.453125 C 160.535156 -113.054688 163.734375 -99.757812 163.734375 -84.5625 L 163.4375 -71.375 L 42.890625 -71.375 C 44.679688 -57.175781 50.523438 -45.925781 60.421875 -37.625 C 70.316406 -29.332031 82.863281 -25.1875 98.0625 -25.1875 C 109.0625 -25.1875 117.957031 -27.234375 124.75 -31.328125 C 131.550781 -35.429688 137.148438 -39.382812 141.546875 -43.1875 Z M 92.359375 -132.546875 C 80.566406 -132.546875 70.269531 -129.796875 61.46875 -124.296875 C 52.675781 -118.804688 46.878906 -109.363281 44.078125 -95.96875 L 132.25 -95.96875 L 132.25 -98.0625 C 131.65625 -104.863281 129.40625 -110.863281 125.5 -116.0625 C 121.601562 -121.257812 116.753906 -125.304688 110.953125 -128.203125 C 105.160156 -131.097656 98.960938 -132.546875 92.359375 -132.546875 Z M 92.359375 -132.546875" transform="translate(867.364276, 1617.875853)"/></g></g></g><g fill="#000" fill-opacity="1"><g><g><path d="M 42.28125 -191.640625 C 35.289062 -191.640625 30.09375 -193.4375 26.6875 -197.03125 C 23.289062 -200.632812 21.59375 -205.332031 21.59375 -211.125 C 21.59375 -216.125 23.289062 -220.625 26.6875 -224.625 C 30.09375 -228.625 35.289062 -230.625 42.28125 -230.625 C 49.28125 -230.625 54.476562 -228.820312 57.875 -225.21875 C 61.28125 -221.625 62.984375 -216.925781 62.984375 -211.125 C 62.984375 -206.125 61.28125 -201.625 57.875 -197.625 C 54.476562 -193.632812 49.28125 -191.640625 42.28125 -191.640625 Z M 58.1875 0 L 27.296875 0 L 27.296875 -157.4375 L 58.1875 -157.4375 Z M 58.1875 0" transform="translate(1127.06359, 1617.875853)"/></g></g></g><g fill="#000" fill-opacity="1"><g><g><path d="M 104.0625 -160.734375 C 118.257812 -160.734375 129.253906 -157.832031 137.046875 -152.03125 C 144.847656 -146.238281 150.296875 -138.441406 153.390625 -128.640625 C 156.492188 -118.847656 158.046875 -107.957031 158.046875 -95.96875 L 158.046875 0 L 127.15625 0 L 127.15625 -93.859375 C 127.15625 -101.460938 126.15625 -108.257812 124.15625 -114.25 C 122.15625 -120.25 118.753906 -124.945312 113.953125 -128.34375 C 109.160156 -131.75 102.460938 -133.148438 93.859375 -132.546875 C 85.867188 -132.546875 78.773438 -130.847656 72.578125 -127.453125 C 66.378906 -124.054688 61.476562 -119.554688 57.875 -113.953125 C 54.28125 -108.359375 52.484375 -102.160156 52.484375 -95.359375 L 52.484375 0 L 21.59375 0 L 21.59375 -157.4375 L 52.484375 -157.4375 L 52.484375 -132.546875 C 57.273438 -139.941406 64.269531 -146.488281 73.46875 -152.1875 C 82.664062 -157.882812 92.863281 -160.734375 104.0625 -160.734375 Z M 104.0625 -160.734375" transform="translate(1210.431294, 1617.875853)"/></g></g></g><g fill="#000" fill-opacity="1"><g><g><path d="M 71.96875 0 L 41.078125 0 L 41.078125 -127.453125 L 8.390625 -127.453125 L 8.390625 -157.4375 L 41.078125 -157.4375 L 41.078125 -197.625 L 71.96875 -197.625 L 71.96875 -157.4375 L 108.5625 -157.4375 L 108.5625 -127.453125 L 71.96875 -127.453125 Z M 71.96875 0" transform="translate(1388.86217, 1617.875853)"/></g></g></g><g fill="#000" fill-opacity="1"><g><g><path d="M 172.4375 -78.875 C 172.4375 -62.875 168.882812 -48.726562 161.78125 -36.4375 C 154.6875 -24.144531 145.09375 -14.5 133 -7.5 C 120.90625 -0.5 107.359375 3 92.359375 3 C 77.367188 3 63.773438 -0.5 51.578125 -7.5 C 39.378906 -14.5 29.734375 -24.144531 22.640625 -36.4375 C 15.546875 -48.726562 12 -62.875 12 -78.875 C 12 -94.863281 15.546875 -109.003906 22.640625 -121.296875 C 29.734375 -133.597656 39.378906 -143.242188 51.578125 -150.234375 C 63.773438 -157.234375 77.367188 -160.734375 92.359375 -160.734375 C 107.359375 -160.734375 120.90625 -157.234375 133 -150.234375 C 145.09375 -143.242188 154.6875 -133.597656 161.78125 -121.296875 C 168.882812 -109.003906 172.4375 -94.863281 172.4375 -78.875 Z M 140.953125 -78.875 C 141.148438 -89.46875 139.097656 -98.8125 134.796875 -106.90625 C 130.503906 -115.007812 124.65625 -121.304688 117.25 -125.796875 C 109.851562 -130.296875 101.554688 -132.546875 92.359375 -132.546875 C 83.171875 -132.546875 74.828125 -130.296875 67.328125 -125.796875 C 59.828125 -121.304688 53.925781 -115.007812 49.625 -106.90625 C 45.332031 -98.8125 43.285156 -89.46875 43.484375 -78.875 C 43.285156 -68.476562 45.332031 -59.226562 49.625 -51.125 C 53.925781 -43.03125 59.828125 -36.679688 67.328125 -32.078125 C 74.828125 -27.484375 83.171875 -25.1875 92.359375 -25.1875 C 101.554688 -25.1875 109.851562 -27.484375 117.25 -32.078125 C 124.65625 -36.679688 130.503906 -43.03125 134.796875 -51.125 C 139.097656 -59.226562 141.148438 -68.476562 140.953125 -78.875 Z M 140.953125 -78.875" transform="translate(1504.017537, 1617.875853)"/></g></g></g><g fill="#000" fill-opacity="1"><g><g><path d="M 195.53125 -210.21875 L 195.53125 -80.671875 C 195.53125 -64.878906 191.878906 -50.734375 184.578125 -38.234375 C 177.285156 -25.742188 167.289062 -15.945312 154.59375 -8.84375 C 141.894531 -1.75 127.347656 1.796875 110.953125 1.796875 C 94.765625 1.796875 80.269531 -1.75 67.46875 -8.84375 C 54.675781 -15.945312 44.628906 -25.742188 37.328125 -38.234375 C 30.035156 -50.734375 26.390625 -64.878906 26.390625 -80.671875 L 26.390625 -210.21875 L 58.78125 -210.21875 L 58.78125 -83.375 C 58.78125 -72.976562 61.226562 -63.679688 66.125 -55.484375 C 71.019531 -47.285156 77.46875 -40.882812 85.46875 -36.28125 C 93.46875 -31.6875 101.960938 -29.390625 110.953125 -29.390625 C 120.554688 -29.390625 129.453125 -31.6875 137.640625 -36.28125 C 145.835938 -40.882812 152.382812 -47.285156 157.28125 -55.484375 C 162.1875 -63.679688 164.640625 -72.976562 164.640625 -83.375 L 164.640625 -210.21875 Z M 195.53125 -210.21875" transform="translate(1772.413517, 1617.875853)"/></g></g></g><g fill="#000" fill-opacity="1"><g><g><path d="M 185.03125 -143.046875 C 185.03125 -130.453125 181.28125 -118.753906 173.78125 -107.953125 C 166.289062 -97.160156 156.546875 -89.164062 144.546875 -83.96875 L 193.421875 0.296875 L 154.140625 0 L 109.765625 -78.875 L 61.78125 -78.875 L 61.78125 0 L 29.390625 0 L 29.390625 -209.921875 L 118.75 -209.921875 C 129.75 -209.921875 140.296875 -207.222656 150.390625 -201.828125 C 160.492188 -196.429688 168.789062 -188.734375 175.28125 -178.734375 C 181.78125 -168.734375 185.03125 -156.835938 185.03125 -143.046875 Z M 113.359375 -178.734375 L 61.78125 -178.734375 L 61.78125 -110.0625 L 121.75 -110.0625 C 131.351562 -110.0625 138.800781 -113.457031 144.09375 -120.25 C 149.394531 -127.050781 152.046875 -134.75 152.046875 -143.34375 C 152.046875 -154.34375 148.242188 -162.988281 140.640625 -169.28125 C 133.046875 -175.582031 123.953125 -178.734375 113.359375 -178.734375 Z M 113.359375 -178.734375" transform="translate(1994.327526, 1617.875853)"/></g></g></g><g fill="#000" fill-opacity="1"><g><g><path d="M 160.140625 -31.1875 L 160.140625 0 L 29.390625 0 L 29.390625 -209.921875 L 61.78125 -209.921875 L 61.78125 -31.1875 Z M 160.140625 -31.1875" transform="translate(2202.746741, 1617.875853)"/></g></g></g><g fill="#000" fill-opacity="1"><g><g><path d="M 80.390625 3.984375 C 122.484375 3.984375 150.203125 -12.828125 150.03125 -37.421875 C 150.03125 -58.5625 133.234375 -69.640625 93.90625 -74.15625 L 68.09375 -77.4375 C 50.421875 -79.515625 42.796875 -83.328125 42.96875 -89.921875 C 42.96875 -98.921875 57 -104.8125 76.578125 -104.984375 C 96.84375 -104.984375 116.765625 -97.890625 128.375 -87.3125 L 140.328125 -107.234375 C 127 -119.375 102.90625 -127.34375 76.40625 -127.34375 C 36.375 -127.34375 9.015625 -112.609375 8.828125 -87.484375 C 8.828125 -67.046875 24.25 -56.65625 59.9375 -52.5 L 85.9375 -49.03125 C 107.0625 -46.4375 116.078125 -41.75 116.078125 -34.484375 C 116.078125 -25.46875 102.734375 -19.40625 82.125 -19.40625 C 55.953125 -19.40625 29.28125 -29.625 17.5 -44 L 3.46875 -23.5625 C 17.5 -7.453125 48.515625 3.984375 80.390625 3.984375 Z M 80.390625 3.984375" transform="translate(260.099641, 226.429954)"/></g></g></g><g fill="#000" fill-opacity="1"><g><g><path d="M 48.859375 3.125 C 74.328125 3.125 95.28125 -6.0625 103.953125 -19.921875 L 104.125 -19.921875 L 104.296875 -17.671875 C 105.6875 -4.84375 116.765625 3.125 133.921875 3.125 C 146.046875 3.125 156.96875 -0.515625 162.328125 -6.234375 L 155.0625 -21.140625 C 152.453125 -18.359375 148.296875 -16.453125 144.140625 -16.453125 C 138.59375 -16.453125 135.3125 -19.75 135.3125 -24.78125 L 135.3125 -58.21875 C 135.3125 -79.6875 109.84375 -91.828125 74.15625 -91.828125 C 46.78125 -91.828125 19.234375 -83.5 4.5 -71.203125 L 14.03125 -54.234375 C 28.234375 -65.3125 52.140625 -72.765625 74.328125 -72.765625 C 92 -72.765625 104.296875 -67.734375 104.296875 -61.328125 C 104.296875 -58.90625 101.875 -57.34375 98.0625 -57 L 60.125 -53.703125 C 23.390625 -50.421875 3.46875 -38.984375 3.46875 -21.828125 C 3.46875 -5.71875 20.09375 3.125 48.859375 3.125 Z M 58.90625 -16.8125 C 43.3125 -16.8125 35.171875 -20.265625 35.171875 -26.6875 C 35.171875 -32.921875 44.359375 -36.734375 62.375 -38.109375 L 103.78125 -41.578125 L 103.78125 -39.328125 C 103.78125 -26.5 85.234375 -16.8125 58.90625 -16.8125 Z M 58.90625 -16.8125" transform="translate(413.596685, 226.429954)"/></g></g></g><g fill="#000" fill-opacity="1"><g><g><path d="M 57.859375 39.5 C 103.78125 39.5 133.75 18.359375 133.75 -14.203125 L 133.75 -88.703125 L 102.21875 -88.703125 L 102.21875 -51.28125 C 102.21875 -30.84375 88.703125 -17.671875 68.265625 -17.671875 C 50.421875 -17.671875 38.46875 -29.625 38.46875 -47.8125 L 38.46875 -88.703125 L 6.75 -88.703125 L 6.578125 -44.53125 C 6.578125 -16.984375 26.5 2.25 56.828125 2.25 C 78.140625 2.25 95.640625 -7.796875 101.875 -23.390625 L 102.046875 -23.390625 L 102.046875 -15.59375 C 102.046875 3.8125 83.859375 16.109375 55.953125 16.109375 C 37.078125 16.109375 17.328125 9.1875 4.84375 0.859375 L -5.890625 21.65625 C 6.75 31.015625 32.390625 39.5 57.859375 39.5 Z M 57.859375 39.5" transform="translate(576.449087, 226.429954)"/></g></g></g><g fill="#000" fill-opacity="1"><g><g><path d="M 8.65625 0 L 110.1875 0 C 138.953125 0 156.4375 -13.171875 156.4375 -34.125 C 156.4375 -48.15625 147.4375 -59.25 132.875 -62.890625 L 132.875 -63.234375 C 145.359375 -67.21875 152.984375 -77.265625 152.984375 -89.75 C 152.984375 -110.53125 136 -123.359375 108.109375 -123.359375 L 8.65625 -123.359375 Z M 43.484375 -72.25 L 43.484375 -102.90625 L 97.546875 -102.90625 C 110.1875 -102.90625 118.15625 -97.1875 118.15625 -87.671875 C 118.15625 -78.140625 110.1875 -72.25 97.546875 -72.25 Z M 43.484375 -20.4375 L 43.484375 -53.703125 L 98.921875 -53.703125 C 112.78125 -53.703125 121.625 -47.296875 121.625 -37.078125 C 121.625 -26.859375 112.78125 -20.4375 98.921875 -20.4375 Z M 43.484375 -20.4375" transform="translate(717.125866, 226.429954)"/></g></g></g><g fill="#000" fill-opacity="1"><g><g><path d="M 48.859375 3.125 C 74.328125 3.125 95.28125 -6.0625 103.953125 -19.921875 L 104.125 -19.921875 L 104.296875 -17.671875 C 105.6875 -4.84375 116.765625 3.125 133.921875 3.125 C 146.046875 3.125 156.96875 -0.515625 162.328125 -6.234375 L 155.0625 -21.140625 C 152.453125 -18.359375 148.296875 -16.453125 144.140625 -16.453125 C 138.59375 -16.453125 135.3125 -19.75 135.3125 -24.78125 L 135.3125 -58.21875 C 135.3125 -79.6875 109.84375 -91.828125 74.15625 -91.828125 C 46.78125 -91.828125 19.234375 -83.5 4.5 -71.203125 L 14.03125 -54.234375 C 28.234375 -65.3125 52.140625 -72.765625 74.328125 -72.765625 C 92 -72.765625 104.296875 -67.734375 104.296875 -61.328125 C 104.296875 -58.90625 101.875 -57.34375 98.0625 -57 L 60.125 -53.703125 C 23.390625 -50.421875 3.46875 -38.984375 3.46875 -21.828125 C 3.46875 -5.71875 20.09375 3.125 48.859375 3.125 Z M 58.90625 -16.8125 C 43.3125 -16.8125 35.171875 -20.265625 35.171875 -26.6875 C 35.171875 -32.921875 44.359375 -36.734375 62.375 -38.109375 L 103.78125 -41.578125 L 103.78125 -39.328125 C 103.78125 -26.5 85.234375 -16.8125 58.90625 -16.8125 Z M 58.90625 -16.8125" transform="translate(877.552824, 226.429954)"/></g></g></g><g fill="#000" fill-opacity="1"><g><g><path d="M 73.453125 3.125 C 109.328125 3.125 137.046875 -12.46875 143.109375 -35.859375 L 113.65625 -41.0625 C 109.84375 -26.6875 94.25 -17.328125 74.15625 -17.328125 C 51.109375 -17.328125 35.859375 -27.890625 36.03125 -44.359375 C 36.03125 -60.8125 50.59375 -71.375 72.25 -71.375 C 88.1875 -71.375 99.625 -64.453125 102.90625 -53.53125 L 132.359375 -59.078125 C 126.8125 -78.828125 102.734375 -91.828125 70.6875 -91.828125 C 31.1875 -91.828125 4.328125 -72.9375 4.328125 -44.359375 C 4.328125 -15.765625 31.875 3.125 73.453125 3.125 Z M 73.453125 3.125" transform="translate(1040.405239, 226.429954)"/></g></g></g><g fill="#000" fill-opacity="1"><g><g><path d="M 6.9375 0 L 38.640625 0 L 38.640625 -29.28125 L 53.359375 -39.15625 L 88.875 0 L 126.125 0 L 75.890625 -54.75 L 125.09375 -88.703125 L 83.859375 -88.703125 L 38.8125 -57.859375 L 38.640625 -57.859375 L 38.640625 -128.546875 L 6.9375 -128.546875 Z M 6.9375 0" transform="translate(1186.106214, 226.429954)"/></g></g></g><g fill="#000" fill-opacity="1"><g><g><path d="M 77.96875 3.125 C 102.390625 3.125 125.953125 -3.46875 138.078125 -12.828125 L 128.03125 -28.765625 C 118.671875 -21.828125 99.625 -16.625 80.390625 -16.625 C 59.9375 -16.625 41.921875 -23.5625 38.109375 -36.375 L 136 -36.375 C 136.6875 -38.984375 136.875 -42.453125 136.875 -44.53125 C 136.875 -72.765625 110.53125 -91.828125 71.71875 -91.828125 C 32.046875 -91.828125 4.328125 -72.25 4.328125 -44.703125 C 4.328125 -16.109375 34.484375 3.125 77.96875 3.125 Z M 37.421875 -51.796875 C 38.984375 -64.109375 53.1875 -72.9375 71.203125 -72.9375 C 89.390625 -72.9375 103.78125 -64.625 104.8125 -51.796875 Z M 37.421875 -51.796875" transform="translate(1312.230183, 226.429954)"/></g></g></g><g fill="#000" fill-opacity="1"><g><g><path d="M 86.796875 -91.828125 C 63.75 -91.828125 46.078125 -82.125 37.9375 -66.703125 L 37.765625 -66.703125 L 34.484375 -88.703125 L 6.9375 -88.703125 L 6.9375 0 L 38.46875 0 L 38.46875 -40.1875 C 38.46875 -60.46875 51.625 -72.421875 73.453125 -72.421875 C 91.828125 -72.421875 102.390625 -62.71875 102.390625 -46.25 L 102.390625 0 L 134.09375 0 L 134.09375 -49.546875 C 134.265625 -75.703125 115.90625 -91.828125 86.796875 -91.828125 Z M 86.796875 -91.828125" transform="translate(1456.545142, 226.429954)"/></g></g></g><g fill="#000" fill-opacity="1"><g><g><path d="M 60.296875 3.125 C 83.328125 3.125 102.90625 -6.9375 110.1875 -22.34375 L 110.359375 -22.34375 L 114.34375 0 L 141.71875 0 L 141.71875 -128.546875 L 110.015625 -128.546875 L 110.015625 -66.703125 L 109.84375 -66.703125 C 102.5625 -81.78125 83.15625 -91.828125 60.125 -91.828125 C 26.5 -91.828125 4.328125 -72.9375 4.328125 -44.359375 C 4.328125 -15.765625 26.6875 3.125 60.296875 3.125 Z M 73.453125 -18.890625 C 50.9375 -18.890625 36.03125 -29.109375 36.03125 -44.359375 C 36.03125 -59.59375 50.9375 -69.8125 73.453125 -69.8125 C 96.15625 -69.8125 111.046875 -59.59375 111.046875 -44.359375 C 111.046875 -29.109375 96.15625 -18.890625 73.453125 -18.890625 Z M 73.453125 -18.890625" transform="translate(1596.355709, 226.429954)"/></g></g></g></svg>