<svg xmlns="http://www.w3.org/2000/svg" width="1200" height="520" fill="none" aria-labelledby="title desc" role="img" viewBox="0 0 1200 520"><title id="title">Integrations</title><desc id="desc">Framework integrations flow through HappyContext to logger adapters.</desc><defs><linearGradient id="frameStroke" x1="0" x2="1200" y1="0" y2="520" gradientUnits="userSpaceOnUse"><stop offset="0" stop-color="#F60" stop-opacity=".42"/><stop offset=".5" stop-color="#F60" stop-opacity=".2"/><stop offset="1" stop-color="#F60" stop-opacity=".4"/></linearGradient><linearGradient id="linkStroke" x1="350" x2="850" y1="260" y2="260" gradientUnits="userSpaceOnUse"><stop offset="0" stop-color="#F60" stop-opacity=".85"/><stop offset="1" stop-color="#F60" stop-opacity=".65"/></linearGradient><radialGradient id="vignette" cx="0" cy="0" r="1" gradientTransform="translate(600 260) rotate(90) scale(340 680)" gradientUnits="userSpaceOnUse"><stop offset=".72" stop-color="#F2F2F0" stop-opacity="0"/><stop offset="1" stop-color="#F60" stop-opacity=".18"/></radialGradient><filter id="lineGlow" width="140%" height="140%" x="-20%" y="-20%"><feGaussianBlur result="blur" stdDeviation="3"/><feMerge><feMergeNode in="blur"/><feMergeNode in="SourceGraphic"/></feMerge></filter></defs><rect width="1200" height="520" fill="#F2F2F0"/><rect width="1184" height="504" x="8" y="8" fill="none" stroke="url(#frameStroke)" stroke-width="1.5"/><text x="60" y="76" fill="#F60" font-family="Inter, Segoe UI, Roboto, Helvetica, Arial, sans-serif" font-size="44" font-weight="700">Integrations</text><g transform="translate(60 132)"><rect width="290" height="318" fill="#F2F2F0" fill-opacity=".94" stroke="#F60" stroke-opacity=".62" stroke-width="1.8" rx="14"/><rect width="290" height="40" fill="#F60" fill-opacity=".1" rx="14"/><text x="18" y="27" fill="#F60" font-family="Inter, Segoe UI, Roboto, Helvetica, Arial, sans-serif" font-size="15" font-weight="700" letter-spacing="1.2">FRAMEWORK INTEGRATIONS</text><g fill="#F60" font-family="ui-monospace, SFMono-Regular, Menlo, Monaco, Consolas, Liberation Mono, monospace" font-size="20"><rect width="258" height="48" x="16" y="58" fill="#F60" fill-opacity=".08" stroke="#F60" stroke-opacity=".22" rx="8"/><text x="30" y="89">net/http</text><rect width="258" height="48" x="16" y="118" fill="#F60" fill-opacity=".08" stroke="#F60" stroke-opacity=".22" rx="8"/><text x="30" y="149">gin</text><rect width="258" height="48" x="16" y="178" fill="#F60" fill-opacity=".08" stroke="#F60" stroke-opacity=".22" rx="8"/><text x="30" y="209">echo</text><rect width="258" height="48" x="16" y="238" fill="#F60" fill-opacity=".08" stroke="#F60" stroke-opacity=".22" rx="8"/><text x="30" y="269">fiber v2/v3</text></g></g><g><path stroke="url(#linkStroke)" stroke-linecap="round" stroke-width="3" d="M350 292C388 292 402 260 430 260" filter="url(#lineGlow)"/><path stroke="url(#linkStroke)" stroke-linecap="round" stroke-width="3" d="M770 260C798 260 812 292 850 292" filter="url(#lineGlow)"/><circle cx="430" cy="260" r="4" fill="#F60"/><circle cx="770" cy="260" r="4" fill="#F60"/></g><g transform="translate(430 188)"><rect width="340" height="146" fill="#F60" rx="14"/><rect width="320" height="126" x="10" y="10" fill="#F2F2F0" fill-opacity=".09" rx="10"/><text x="170" y="68" fill="#F2F2F0" font-family="Inter, Segoe UI, Roboto, Helvetica, Arial, sans-serif" font-size="38" font-weight="700" text-anchor="middle">happycontext</text><text x="170" y="96" fill="#F2F2F0" fill-opacity=".9" font-family="Inter, Segoe UI, Roboto, Helvetica, Arial, sans-serif" font-size="17" font-weight="500" text-anchor="middle">Core context + sampling pipeline</text></g><g transform="translate(850 132)"><rect width="290" height="318" fill="#F2F2F0" fill-opacity=".94" stroke="#F60" stroke-opacity=".62" stroke-width="1.8" rx="14"/><rect width="290" height="40" fill="#F60" fill-opacity=".1" rx="14"/><text x="18" y="27" fill="#F60" font-family="Inter, Segoe UI, Roboto, Helvetica, Arial, sans-serif" font-size="15" font-weight="700" letter-spacing="1.2">LOGGER ADAPTERS</text><g fill="#F60" font-family="ui-monospace, SFMono-Regular, Menlo, Monaco, Consolas, Liberation Mono, monospace" font-size="24"><rect width="258" height="64" x="16" y="72" fill="#F60" fill-opacity=".08" stroke="#F60" stroke-opacity=".22" rx="8"/><text x="145" y="112" text-anchor="middle">slog</text><rect width="258" height="64" x="16" y="150" fill="#F60" fill-opacity=".08" stroke="#F60" stroke-opacity=".22" rx="8"/><text x="145" y="190" text-anchor="middle">zap</text><rect width="258" height="64" x="16" y="228" fill="#F60" fill-opacity=".08" stroke="#F60" stroke-opacity=".22" rx="8"/><text x="145" y="268" text-anchor="middle">zerolog</text></g></g><rect width="1200" height="520" fill="url(#vignette)"/></svg>